G04 #@! TF.GenerationSoftware,KiCad,Pcbnew,(5.1.5)-3*
G04 #@! TF.CreationDate,2020-04-13T21:35:05+08:00*
G04 #@! TF.ProjectId,pcb,7063622e-6b69-4636-9164-5f7063625858,rev?*
G04 #@! TF.SameCoordinates,Original*
G04 #@! TF.FileFunction,Copper,L2,Bot*
G04 #@! TF.FilePolarity,Positive*
%FSLAX46Y46*%
G04 Gerber Fmt 4.6, Leading zero omitted, Abs format (unit mm)*
G04 Created by KiCad (PCBNEW (5.1.5)-3) date 2020-04-13 21:35:05*
%MOMM*%
%LPD*%
G04 APERTURE LIST*
%ADD10C,0.100000*%
%ADD11C,0.254000*%
G04 APERTURE END LIST*
D10*
G36*
X188110000Y-100320000D02*
G01*
X191290000Y-102170000D01*
X191290000Y-99120000D01*
X188110000Y-97270000D01*
X188110000Y-100320000D01*
G37*
X188110000Y-100320000D02*
X191290000Y-102170000D01*
X191290000Y-99120000D01*
X188110000Y-97270000D01*
X188110000Y-100320000D01*
G36*
X187730000Y-100320000D02*
G01*
X184550000Y-102170000D01*
X184550000Y-99120000D01*
X187730000Y-97270000D01*
X187730000Y-100320000D01*
G37*
X187730000Y-100320000D02*
X184550000Y-102170000D01*
X184550000Y-99120000D01*
X187730000Y-97270000D01*
X187730000Y-100320000D01*
G36*
X184740000Y-102510000D02*
G01*
X187920000Y-104310000D01*
X191100000Y-102510000D01*
X187920000Y-100700000D01*
X184740000Y-102510000D01*
G37*
X184740000Y-102510000D02*
X187920000Y-104310000D01*
X191100000Y-102510000D01*
X187920000Y-100700000D01*
X184740000Y-102510000D01*
G36*
X188770000Y-107790000D02*
G01*
X191320000Y-109260000D01*
X191320000Y-106320000D01*
X188770000Y-107790000D01*
G37*
X188770000Y-107790000D02*
X191320000Y-109260000D01*
X191320000Y-106320000D01*
X188770000Y-107790000D01*
G36*
X177540000Y-98390000D02*
G01*
X180610000Y-100160000D01*
X180610000Y-96830000D01*
X180960000Y-96630000D01*
X180770000Y-96530000D01*
X177540000Y-98390000D01*
G37*
X177540000Y-98390000D02*
X180610000Y-100160000D01*
X180610000Y-96830000D01*
X180960000Y-96630000D01*
X180770000Y-96530000D01*
X177540000Y-98390000D01*
G36*
X187060000Y-107790000D02*
G01*
X184510000Y-109260000D01*
X184510000Y-106320000D01*
X187060000Y-107790000D01*
G37*
X187060000Y-107790000D02*
X184510000Y-109260000D01*
X184510000Y-106320000D01*
X187060000Y-107790000D01*
G36*
X198290000Y-98390000D02*
G01*
X195220000Y-100160000D01*
X195220000Y-96830000D01*
X194870000Y-96630000D01*
X195060000Y-96530000D01*
X198290000Y-98390000D01*
G37*
X198290000Y-98390000D02*
X195220000Y-100160000D01*
X195220000Y-96830000D01*
X194870000Y-96630000D01*
X195060000Y-96530000D01*
X198290000Y-98390000D01*
G36*
X191860000Y-94870000D02*
G01*
X194520000Y-96400000D01*
X194870000Y-96220000D01*
X194870000Y-93140000D01*
X191860000Y-94870000D01*
G37*
X191860000Y-94870000D02*
X194520000Y-96400000D01*
X194870000Y-96220000D01*
X194870000Y-93140000D01*
X191860000Y-94870000D01*
G36*
X183980000Y-94870000D02*
G01*
X181320000Y-96400000D01*
X180970000Y-96220000D01*
X180970000Y-93140000D01*
X183980000Y-94870000D01*
G37*
X183980000Y-94870000D02*
X181320000Y-96400000D01*
X180970000Y-96220000D01*
X180970000Y-93140000D01*
X183980000Y-94870000D01*
G36*
X187920000Y-93040000D02*
G01*
X184350000Y-90970000D01*
X181170000Y-92810000D01*
X184750000Y-94870000D01*
X181170000Y-96930000D01*
X184350000Y-98760000D01*
X187920000Y-96690000D01*
X191480000Y-98760000D01*
X194670000Y-96930000D01*
X191110000Y-94870000D01*
X194680000Y-92810000D01*
X191490000Y-90970000D01*
X187920000Y-93040000D01*
G37*
X187920000Y-93040000D02*
X184350000Y-90970000D01*
X181170000Y-92810000D01*
X184750000Y-94870000D01*
X181170000Y-96930000D01*
X184350000Y-98760000D01*
X187920000Y-96690000D01*
X191480000Y-98760000D01*
X194670000Y-96930000D01*
X191110000Y-94870000D01*
X194680000Y-92810000D01*
X191490000Y-90970000D01*
X187920000Y-93040000D01*
D11*
G36*
X183865000Y-99271224D02*
G01*
X183865000Y-102170000D01*
X183869310Y-102213953D01*
X183870689Y-102258097D01*
X183875819Y-102280335D01*
X183878046Y-102303051D01*
X183890812Y-102345335D01*
X183900738Y-102388365D01*
X183910089Y-102409182D01*
X183916686Y-102431033D01*
X183937422Y-102470033D01*
X183955517Y-102510315D01*
X183968733Y-102528920D01*
X183979449Y-102549073D01*
X184007361Y-102583296D01*
X184032939Y-102619303D01*
X184049521Y-102634990D01*
X184063944Y-102652674D01*
X184073892Y-102660904D01*
X184077997Y-102686003D01*
X184084623Y-102703735D01*
X184088703Y-102722220D01*
X184107974Y-102766229D01*
X184124791Y-102811235D01*
X184134737Y-102827346D01*
X184142328Y-102844682D01*
X184169774Y-102884103D01*
X184195017Y-102924993D01*
X184207900Y-102938862D01*
X184218716Y-102954397D01*
X184253307Y-102987745D01*
X184286002Y-103022943D01*
X184301332Y-103034045D01*
X184314962Y-103047185D01*
X184355375Y-103073182D01*
X184394280Y-103101356D01*
X184402570Y-103106126D01*
X187582571Y-104906126D01*
X187594751Y-104911526D01*
X187605947Y-104918766D01*
X187655790Y-104938589D01*
X187704786Y-104960313D01*
X187717781Y-104963244D01*
X187730171Y-104968172D01*
X187782906Y-104977935D01*
X187835197Y-104989730D01*
X187848520Y-104990082D01*
X187861627Y-104992508D01*
X187915235Y-104991842D01*
X187968839Y-104993257D01*
X187981980Y-104991013D01*
X187995305Y-104990848D01*
X188047767Y-104979782D01*
X188100620Y-104970758D01*
X188113072Y-104966006D01*
X188126114Y-104963255D01*
X188175420Y-104942212D01*
X188225523Y-104923092D01*
X188236819Y-104916009D01*
X188249074Y-104910779D01*
X188257430Y-104906126D01*
X191437430Y-103106126D01*
X191476737Y-103078489D01*
X191517497Y-103053066D01*
X191531305Y-103040121D01*
X191546792Y-103029232D01*
X191579975Y-102994493D01*
X191615028Y-102961632D01*
X191626063Y-102946246D01*
X191639135Y-102932561D01*
X191664939Y-102892040D01*
X191692942Y-102852994D01*
X191700776Y-102835762D01*
X191710944Y-102819795D01*
X191728385Y-102775033D01*
X191748271Y-102731293D01*
X191752610Y-102712864D01*
X191759481Y-102695229D01*
X191765283Y-102662619D01*
X191769269Y-102659414D01*
X191783938Y-102641932D01*
X191800738Y-102626478D01*
X191826817Y-102590831D01*
X191855203Y-102557002D01*
X191866198Y-102537002D01*
X191879674Y-102518582D01*
X191898332Y-102478551D01*
X191919608Y-102439850D01*
X191926508Y-102418098D01*
X191936151Y-102397409D01*
X191946680Y-102354509D01*
X191960031Y-102312420D01*
X191962574Y-102289744D01*
X191968016Y-102267572D01*
X191970012Y-102223440D01*
X191974933Y-102179564D01*
X191975000Y-102170000D01*
X191975000Y-99265747D01*
X194535000Y-97797157D01*
X194535000Y-100160000D01*
X194539180Y-100202626D01*
X194540350Y-100245444D01*
X194545688Y-100269007D01*
X194548046Y-100293051D01*
X194560426Y-100334055D01*
X194569890Y-100375828D01*
X194579703Y-100397903D01*
X194586686Y-100421033D01*
X194606798Y-100458858D01*
X194624193Y-100497991D01*
X194638105Y-100517738D01*
X194649449Y-100539073D01*
X194676520Y-100572266D01*
X194701189Y-100607281D01*
X194718677Y-100623955D01*
X194733944Y-100642674D01*
X194766941Y-100669972D01*
X194797947Y-100699534D01*
X194818340Y-100712493D01*
X194836953Y-100727891D01*
X194874626Y-100748261D01*
X194910780Y-100771235D01*
X194933302Y-100779986D01*
X194954552Y-100791476D01*
X194995465Y-100804141D01*
X195035392Y-100819655D01*
X195059182Y-100823865D01*
X195082262Y-100831009D01*
X195124861Y-100835486D01*
X195167036Y-100842949D01*
X195191190Y-100842458D01*
X195215218Y-100844983D01*
X195257874Y-100841101D01*
X195300697Y-100840230D01*
X195324294Y-100835057D01*
X195348356Y-100832867D01*
X195389450Y-100820772D01*
X195431284Y-100811601D01*
X195453427Y-100801943D01*
X195476606Y-100795121D01*
X195514566Y-100775276D01*
X195553824Y-100758153D01*
X195562143Y-100753434D01*
X198052252Y-99317768D01*
X198052253Y-101574095D01*
X194822387Y-103438882D01*
X194774613Y-103464416D01*
X194741064Y-103491948D01*
X194705778Y-103517234D01*
X194690915Y-103533103D01*
X194674114Y-103546891D01*
X194646580Y-103580440D01*
X194616906Y-103612123D01*
X194605427Y-103630584D01*
X194591635Y-103647388D01*
X194571173Y-103685668D01*
X194548253Y-103722527D01*
X194540596Y-103742872D01*
X194530348Y-103762044D01*
X194517746Y-103803585D01*
X194502459Y-103844203D01*
X194498918Y-103865649D01*
X194492607Y-103886453D01*
X194488352Y-103929648D01*
X194481281Y-103972475D01*
X194483054Y-104026628D01*
X194483005Y-107152867D01*
X192005000Y-108583534D01*
X192005000Y-106320000D01*
X192000821Y-106277379D01*
X191999654Y-106234595D01*
X191994314Y-106211019D01*
X191991954Y-106186949D01*
X191979578Y-106145957D01*
X191970122Y-106104209D01*
X191960303Y-106082116D01*
X191953314Y-106058967D01*
X191933214Y-106021164D01*
X191915827Y-105982043D01*
X191901902Y-105962276D01*
X191890551Y-105940927D01*
X191863495Y-105907753D01*
X191838837Y-105872749D01*
X191821336Y-105856061D01*
X191806056Y-105837326D01*
X191773070Y-105810037D01*
X191742084Y-105780491D01*
X191721678Y-105767522D01*
X191703047Y-105752109D01*
X191665386Y-105731746D01*
X191629255Y-105708783D01*
X191606717Y-105700024D01*
X191585448Y-105688524D01*
X191544549Y-105675864D01*
X191504646Y-105660356D01*
X191480839Y-105656142D01*
X191457738Y-105648991D01*
X191415155Y-105644515D01*
X191373002Y-105637054D01*
X191348828Y-105637544D01*
X191324782Y-105635017D01*
X191282149Y-105638897D01*
X191239342Y-105639765D01*
X191215723Y-105644942D01*
X191191644Y-105647133D01*
X191150568Y-105659222D01*
X191108754Y-105668387D01*
X191086595Y-105678051D01*
X191063394Y-105684879D01*
X191025446Y-105704717D01*
X190986211Y-105721828D01*
X190977891Y-105726547D01*
X188427892Y-107196547D01*
X188392519Y-107221837D01*
X188388071Y-107224577D01*
X188377319Y-107226352D01*
X188355586Y-107227064D01*
X188313322Y-107236918D01*
X188270508Y-107243987D01*
X188250161Y-107251645D01*
X188228974Y-107256585D01*
X188189434Y-107274501D01*
X188148832Y-107289782D01*
X188102833Y-107318386D01*
X187920204Y-107423828D01*
X187737465Y-107318331D01*
X187691451Y-107289717D01*
X187650826Y-107274427D01*
X187611284Y-107256512D01*
X187590112Y-107251576D01*
X187569775Y-107243922D01*
X187526951Y-107236852D01*
X187484671Y-107226995D01*
X187462947Y-107226284D01*
X187441503Y-107222744D01*
X187439467Y-107222811D01*
X187410360Y-107201381D01*
X187402108Y-107196546D01*
X184852108Y-105726547D01*
X184813113Y-105708889D01*
X184775448Y-105688524D01*
X184752347Y-105681373D01*
X184730323Y-105671400D01*
X184688639Y-105661652D01*
X184647738Y-105648991D01*
X184623691Y-105646464D01*
X184600148Y-105640958D01*
X184557358Y-105639492D01*
X184514782Y-105635017D01*
X184490705Y-105637208D01*
X184466537Y-105636380D01*
X184424280Y-105643253D01*
X184381644Y-105647133D01*
X184358444Y-105653961D01*
X184334583Y-105657842D01*
X184294470Y-105672790D01*
X184253394Y-105684879D01*
X184231967Y-105696081D01*
X184209309Y-105704524D01*
X184172862Y-105726980D01*
X184134919Y-105746816D01*
X184116070Y-105761971D01*
X184095490Y-105774651D01*
X184064102Y-105803755D01*
X184030731Y-105830586D01*
X184015189Y-105849109D01*
X183997458Y-105865549D01*
X183972317Y-105900201D01*
X183944797Y-105932998D01*
X183933147Y-105954189D01*
X183918950Y-105973757D01*
X183901021Y-106012626D01*
X183880392Y-106050150D01*
X183873080Y-106073200D01*
X183862954Y-106095153D01*
X183852915Y-106136770D01*
X183839969Y-106177580D01*
X183837274Y-106201606D01*
X183831603Y-106225115D01*
X183829838Y-106267900D01*
X183825067Y-106310436D01*
X183825000Y-106320000D01*
X183825000Y-108577527D01*
X181357410Y-107152870D01*
X181357380Y-104026636D01*
X181359154Y-103972474D01*
X181352083Y-103929648D01*
X181347829Y-103886457D01*
X181341517Y-103865651D01*
X181337976Y-103844202D01*
X181322687Y-103803579D01*
X181310088Y-103762048D01*
X181299841Y-103742877D01*
X181292181Y-103722525D01*
X181269259Y-103685662D01*
X181248802Y-103647391D01*
X181235012Y-103630588D01*
X181223529Y-103612122D01*
X181193850Y-103580434D01*
X181166324Y-103546894D01*
X181149525Y-103533108D01*
X181134657Y-103517233D01*
X181099363Y-103491941D01*
X181065825Y-103464418D01*
X181018066Y-103438891D01*
X177788183Y-101574096D01*
X177788183Y-99323785D01*
X180267858Y-100753434D01*
X180306877Y-100771105D01*
X180344552Y-100791476D01*
X180367630Y-100798620D01*
X180389640Y-100808588D01*
X180431348Y-100818344D01*
X180472262Y-100831009D01*
X180496289Y-100833534D01*
X180519814Y-100839037D01*
X180562621Y-100840506D01*
X180605218Y-100844983D01*
X180629278Y-100842793D01*
X180653424Y-100843622D01*
X180695696Y-100836749D01*
X180738356Y-100832867D01*
X180761538Y-100826044D01*
X180785379Y-100822168D01*
X180825510Y-100807216D01*
X180866606Y-100795121D01*
X180888017Y-100783928D01*
X180910656Y-100775493D01*
X180947121Y-100753029D01*
X180985081Y-100733184D01*
X181003913Y-100718043D01*
X181024479Y-100705373D01*
X181055887Y-100676254D01*
X181089269Y-100649414D01*
X181104796Y-100630909D01*
X181122516Y-100614481D01*
X181147675Y-100579808D01*
X181175203Y-100547002D01*
X181186841Y-100525833D01*
X181201031Y-100506277D01*
X181218975Y-100467381D01*
X181239608Y-100429850D01*
X181246912Y-100406824D01*
X181257034Y-100384884D01*
X181267083Y-100343238D01*
X181280031Y-100302420D01*
X181282723Y-100278419D01*
X181288392Y-100254925D01*
X181290161Y-100212111D01*
X181294933Y-100169564D01*
X181295000Y-100160000D01*
X181295000Y-97792261D01*
X183865000Y-99271224D01*
G37*
X183865000Y-99271224D02*
X183865000Y-102170000D01*
X183869310Y-102213953D01*
X183870689Y-102258097D01*
X183875819Y-102280335D01*
X183878046Y-102303051D01*
X183890812Y-102345335D01*
X183900738Y-102388365D01*
X183910089Y-102409182D01*
X183916686Y-102431033D01*
X183937422Y-102470033D01*
X183955517Y-102510315D01*
X183968733Y-102528920D01*
X183979449Y-102549073D01*
X184007361Y-102583296D01*
X184032939Y-102619303D01*
X184049521Y-102634990D01*
X184063944Y-102652674D01*
X184073892Y-102660904D01*
X184077997Y-102686003D01*
X184084623Y-102703735D01*
X184088703Y-102722220D01*
X184107974Y-102766229D01*
X184124791Y-102811235D01*
X184134737Y-102827346D01*
X184142328Y-102844682D01*
X184169774Y-102884103D01*
X184195017Y-102924993D01*
X184207900Y-102938862D01*
X184218716Y-102954397D01*
X184253307Y-102987745D01*
X184286002Y-103022943D01*
X184301332Y-103034045D01*
X184314962Y-103047185D01*
X184355375Y-103073182D01*
X184394280Y-103101356D01*
X184402570Y-103106126D01*
X187582571Y-104906126D01*
X187594751Y-104911526D01*
X187605947Y-104918766D01*
X187655790Y-104938589D01*
X187704786Y-104960313D01*
X187717781Y-104963244D01*
X187730171Y-104968172D01*
X187782906Y-104977935D01*
X187835197Y-104989730D01*
X187848520Y-104990082D01*
X187861627Y-104992508D01*
X187915235Y-104991842D01*
X187968839Y-104993257D01*
X187981980Y-104991013D01*
X187995305Y-104990848D01*
X188047767Y-104979782D01*
X188100620Y-104970758D01*
X188113072Y-104966006D01*
X188126114Y-104963255D01*
X188175420Y-104942212D01*
X188225523Y-104923092D01*
X188236819Y-104916009D01*
X188249074Y-104910779D01*
X188257430Y-104906126D01*
X191437430Y-103106126D01*
X191476737Y-103078489D01*
X191517497Y-103053066D01*
X191531305Y-103040121D01*
X191546792Y-103029232D01*
X191579975Y-102994493D01*
X191615028Y-102961632D01*
X191626063Y-102946246D01*
X191639135Y-102932561D01*
X191664939Y-102892040D01*
X191692942Y-102852994D01*
X191700776Y-102835762D01*
X191710944Y-102819795D01*
X191728385Y-102775033D01*
X191748271Y-102731293D01*
X191752610Y-102712864D01*
X191759481Y-102695229D01*
X191765283Y-102662619D01*
X191769269Y-102659414D01*
X191783938Y-102641932D01*
X191800738Y-102626478D01*
X191826817Y-102590831D01*
X191855203Y-102557002D01*
X191866198Y-102537002D01*
X191879674Y-102518582D01*
X191898332Y-102478551D01*
X191919608Y-102439850D01*
X191926508Y-102418098D01*
X191936151Y-102397409D01*
X191946680Y-102354509D01*
X191960031Y-102312420D01*
X191962574Y-102289744D01*
X191968016Y-102267572D01*
X191970012Y-102223440D01*
X191974933Y-102179564D01*
X191975000Y-102170000D01*
X191975000Y-99265747D01*
X194535000Y-97797157D01*
X194535000Y-100160000D01*
X194539180Y-100202626D01*
X194540350Y-100245444D01*
X194545688Y-100269007D01*
X194548046Y-100293051D01*
X194560426Y-100334055D01*
X194569890Y-100375828D01*
X194579703Y-100397903D01*
X194586686Y-100421033D01*
X194606798Y-100458858D01*
X194624193Y-100497991D01*
X194638105Y-100517738D01*
X194649449Y-100539073D01*
X194676520Y-100572266D01*
X194701189Y-100607281D01*
X194718677Y-100623955D01*
X194733944Y-100642674D01*
X194766941Y-100669972D01*
X194797947Y-100699534D01*
X194818340Y-100712493D01*
X194836953Y-100727891D01*
X194874626Y-100748261D01*
X194910780Y-100771235D01*
X194933302Y-100779986D01*
X194954552Y-100791476D01*
X194995465Y-100804141D01*
X195035392Y-100819655D01*
X195059182Y-100823865D01*
X195082262Y-100831009D01*
X195124861Y-100835486D01*
X195167036Y-100842949D01*
X195191190Y-100842458D01*
X195215218Y-100844983D01*
X195257874Y-100841101D01*
X195300697Y-100840230D01*
X195324294Y-100835057D01*
X195348356Y-100832867D01*
X195389450Y-100820772D01*
X195431284Y-100811601D01*
X195453427Y-100801943D01*
X195476606Y-100795121D01*
X195514566Y-100775276D01*
X195553824Y-100758153D01*
X195562143Y-100753434D01*
X198052252Y-99317768D01*
X198052253Y-101574095D01*
X194822387Y-103438882D01*
X194774613Y-103464416D01*
X194741064Y-103491948D01*
X194705778Y-103517234D01*
X194690915Y-103533103D01*
X194674114Y-103546891D01*
X194646580Y-103580440D01*
X194616906Y-103612123D01*
X194605427Y-103630584D01*
X194591635Y-103647388D01*
X194571173Y-103685668D01*
X194548253Y-103722527D01*
X194540596Y-103742872D01*
X194530348Y-103762044D01*
X194517746Y-103803585D01*
X194502459Y-103844203D01*
X194498918Y-103865649D01*
X194492607Y-103886453D01*
X194488352Y-103929648D01*
X194481281Y-103972475D01*
X194483054Y-104026628D01*
X194483005Y-107152867D01*
X192005000Y-108583534D01*
X192005000Y-106320000D01*
X192000821Y-106277379D01*
X191999654Y-106234595D01*
X191994314Y-106211019D01*
X191991954Y-106186949D01*
X191979578Y-106145957D01*
X191970122Y-106104209D01*
X191960303Y-106082116D01*
X191953314Y-106058967D01*
X191933214Y-106021164D01*
X191915827Y-105982043D01*
X191901902Y-105962276D01*
X191890551Y-105940927D01*
X191863495Y-105907753D01*
X191838837Y-105872749D01*
X191821336Y-105856061D01*
X191806056Y-105837326D01*
X191773070Y-105810037D01*
X191742084Y-105780491D01*
X191721678Y-105767522D01*
X191703047Y-105752109D01*
X191665386Y-105731746D01*
X191629255Y-105708783D01*
X191606717Y-105700024D01*
X191585448Y-105688524D01*
X191544549Y-105675864D01*
X191504646Y-105660356D01*
X191480839Y-105656142D01*
X191457738Y-105648991D01*
X191415155Y-105644515D01*
X191373002Y-105637054D01*
X191348828Y-105637544D01*
X191324782Y-105635017D01*
X191282149Y-105638897D01*
X191239342Y-105639765D01*
X191215723Y-105644942D01*
X191191644Y-105647133D01*
X191150568Y-105659222D01*
X191108754Y-105668387D01*
X191086595Y-105678051D01*
X191063394Y-105684879D01*
X191025446Y-105704717D01*
X190986211Y-105721828D01*
X190977891Y-105726547D01*
X188427892Y-107196547D01*
X188392519Y-107221837D01*
X188388071Y-107224577D01*
X188377319Y-107226352D01*
X188355586Y-107227064D01*
X188313322Y-107236918D01*
X188270508Y-107243987D01*
X188250161Y-107251645D01*
X188228974Y-107256585D01*
X188189434Y-107274501D01*
X188148832Y-107289782D01*
X188102833Y-107318386D01*
X187920204Y-107423828D01*
X187737465Y-107318331D01*
X187691451Y-107289717D01*
X187650826Y-107274427D01*
X187611284Y-107256512D01*
X187590112Y-107251576D01*
X187569775Y-107243922D01*
X187526951Y-107236852D01*
X187484671Y-107226995D01*
X187462947Y-107226284D01*
X187441503Y-107222744D01*
X187439467Y-107222811D01*
X187410360Y-107201381D01*
X187402108Y-107196546D01*
X184852108Y-105726547D01*
X184813113Y-105708889D01*
X184775448Y-105688524D01*
X184752347Y-105681373D01*
X184730323Y-105671400D01*
X184688639Y-105661652D01*
X184647738Y-105648991D01*
X184623691Y-105646464D01*
X184600148Y-105640958D01*
X184557358Y-105639492D01*
X184514782Y-105635017D01*
X184490705Y-105637208D01*
X184466537Y-105636380D01*
X184424280Y-105643253D01*
X184381644Y-105647133D01*
X184358444Y-105653961D01*
X184334583Y-105657842D01*
X184294470Y-105672790D01*
X184253394Y-105684879D01*
X184231967Y-105696081D01*
X184209309Y-105704524D01*
X184172862Y-105726980D01*
X184134919Y-105746816D01*
X184116070Y-105761971D01*
X184095490Y-105774651D01*
X184064102Y-105803755D01*
X184030731Y-105830586D01*
X184015189Y-105849109D01*
X183997458Y-105865549D01*
X183972317Y-105900201D01*
X183944797Y-105932998D01*
X183933147Y-105954189D01*
X183918950Y-105973757D01*
X183901021Y-106012626D01*
X183880392Y-106050150D01*
X183873080Y-106073200D01*
X183862954Y-106095153D01*
X183852915Y-106136770D01*
X183839969Y-106177580D01*
X183837274Y-106201606D01*
X183831603Y-106225115D01*
X183829838Y-106267900D01*
X183825067Y-106310436D01*
X183825000Y-106320000D01*
X183825000Y-108577527D01*
X181357410Y-107152870D01*
X181357380Y-104026636D01*
X181359154Y-103972474D01*
X181352083Y-103929648D01*
X181347829Y-103886457D01*
X181341517Y-103865651D01*
X181337976Y-103844202D01*
X181322687Y-103803579D01*
X181310088Y-103762048D01*
X181299841Y-103742877D01*
X181292181Y-103722525D01*
X181269259Y-103685662D01*
X181248802Y-103647391D01*
X181235012Y-103630588D01*
X181223529Y-103612122D01*
X181193850Y-103580434D01*
X181166324Y-103546894D01*
X181149525Y-103533108D01*
X181134657Y-103517233D01*
X181099363Y-103491941D01*
X181065825Y-103464418D01*
X181018066Y-103438891D01*
X177788183Y-101574096D01*
X177788183Y-99323785D01*
X180267858Y-100753434D01*
X180306877Y-100771105D01*
X180344552Y-100791476D01*
X180367630Y-100798620D01*
X180389640Y-100808588D01*
X180431348Y-100818344D01*
X180472262Y-100831009D01*
X180496289Y-100833534D01*
X180519814Y-100839037D01*
X180562621Y-100840506D01*
X180605218Y-100844983D01*
X180629278Y-100842793D01*
X180653424Y-100843622D01*
X180695696Y-100836749D01*
X180738356Y-100832867D01*
X180761538Y-100826044D01*
X180785379Y-100822168D01*
X180825510Y-100807216D01*
X180866606Y-100795121D01*
X180888017Y-100783928D01*
X180910656Y-100775493D01*
X180947121Y-100753029D01*
X180985081Y-100733184D01*
X181003913Y-100718043D01*
X181024479Y-100705373D01*
X181055887Y-100676254D01*
X181089269Y-100649414D01*
X181104796Y-100630909D01*
X181122516Y-100614481D01*
X181147675Y-100579808D01*
X181175203Y-100547002D01*
X181186841Y-100525833D01*
X181201031Y-100506277D01*
X181218975Y-100467381D01*
X181239608Y-100429850D01*
X181246912Y-100406824D01*
X181257034Y-100384884D01*
X181267083Y-100343238D01*
X181280031Y-100302420D01*
X181282723Y-100278419D01*
X181288392Y-100254925D01*
X181290161Y-100212111D01*
X181294933Y-100169564D01*
X181295000Y-100160000D01*
X181295000Y-97792261D01*
X183865000Y-99271224D01*
M02*
