G04 #@! TF.GenerationSoftware,KiCad,Pcbnew,(5.1.5)-3*
G04 #@! TF.CreationDate,2020-04-13T21:58:25+08:00*
G04 #@! TF.ProjectId,pcb,7063622e-6b69-4636-9164-5f7063625858,rev?*
G04 #@! TF.SameCoordinates,Original*
G04 #@! TF.FileFunction,Copper,L1,Top*
G04 #@! TF.FilePolarity,Positive*
%FSLAX46Y46*%
G04 Gerber Fmt 4.6, Leading zero omitted, Abs format (unit mm)*
G04 Created by KiCad (PCBNEW (5.1.5)-3) date 2020-04-13 21:58:25*
%MOMM*%
%LPD*%
G04 APERTURE LIST*
%ADD10C,0.100000*%
%ADD11C,0.254000*%
G04 APERTURE END LIST*
D10*
G36*
X217890000Y-100320000D02*
G01*
X214710000Y-102170000D01*
X214710000Y-99120000D01*
X217890000Y-97270000D01*
X217890000Y-100320000D01*
G37*
X217890000Y-100320000D02*
X214710000Y-102170000D01*
X214710000Y-99120000D01*
X217890000Y-97270000D01*
X217890000Y-100320000D01*
G36*
X218270000Y-100320000D02*
G01*
X221450000Y-102170000D01*
X221450000Y-99120000D01*
X218270000Y-97270000D01*
X218270000Y-100320000D01*
G37*
X218270000Y-100320000D02*
X221450000Y-102170000D01*
X221450000Y-99120000D01*
X218270000Y-97270000D01*
X218270000Y-100320000D01*
G36*
X221260000Y-102510000D02*
G01*
X218080000Y-104310000D01*
X214900000Y-102510000D01*
X218080000Y-100700000D01*
X221260000Y-102510000D01*
G37*
X221260000Y-102510000D02*
X218080000Y-104310000D01*
X214900000Y-102510000D01*
X218080000Y-100700000D01*
X221260000Y-102510000D01*
G36*
X217230000Y-107790000D02*
G01*
X214680000Y-109260000D01*
X214680000Y-106320000D01*
X217230000Y-107790000D01*
G37*
X217230000Y-107790000D02*
X214680000Y-109260000D01*
X214680000Y-106320000D01*
X217230000Y-107790000D01*
G36*
X228460000Y-98390000D02*
G01*
X225390000Y-100160000D01*
X225390000Y-96830000D01*
X225040000Y-96630000D01*
X225230000Y-96530000D01*
X228460000Y-98390000D01*
G37*
X228460000Y-98390000D02*
X225390000Y-100160000D01*
X225390000Y-96830000D01*
X225040000Y-96630000D01*
X225230000Y-96530000D01*
X228460000Y-98390000D01*
G36*
X218940000Y-107790000D02*
G01*
X221490000Y-109260000D01*
X221490000Y-106320000D01*
X218940000Y-107790000D01*
G37*
X218940000Y-107790000D02*
X221490000Y-109260000D01*
X221490000Y-106320000D01*
X218940000Y-107790000D01*
G36*
X207710000Y-98390000D02*
G01*
X210780000Y-100160000D01*
X210780000Y-96830000D01*
X211130000Y-96630000D01*
X210940000Y-96530000D01*
X207710000Y-98390000D01*
G37*
X207710000Y-98390000D02*
X210780000Y-100160000D01*
X210780000Y-96830000D01*
X211130000Y-96630000D01*
X210940000Y-96530000D01*
X207710000Y-98390000D01*
G36*
X214140000Y-94870000D02*
G01*
X211480000Y-96400000D01*
X211130000Y-96220000D01*
X211130000Y-93140000D01*
X214140000Y-94870000D01*
G37*
X214140000Y-94870000D02*
X211480000Y-96400000D01*
X211130000Y-96220000D01*
X211130000Y-93140000D01*
X214140000Y-94870000D01*
G36*
X222020000Y-94870000D02*
G01*
X224680000Y-96400000D01*
X225030000Y-96220000D01*
X225030000Y-93140000D01*
X222020000Y-94870000D01*
G37*
X222020000Y-94870000D02*
X224680000Y-96400000D01*
X225030000Y-96220000D01*
X225030000Y-93140000D01*
X222020000Y-94870000D01*
G36*
X218080000Y-93040000D02*
G01*
X221650000Y-90970000D01*
X224830000Y-92810000D01*
X221250000Y-94870000D01*
X224830000Y-96930000D01*
X221650000Y-98760000D01*
X218080000Y-96690000D01*
X214520000Y-98760000D01*
X211330000Y-96930000D01*
X214890000Y-94870000D01*
X211320000Y-92810000D01*
X214510000Y-90970000D01*
X218080000Y-93040000D01*
G37*
X218080000Y-93040000D02*
X221650000Y-90970000D01*
X224830000Y-92810000D01*
X221250000Y-94870000D01*
X224830000Y-96930000D01*
X221650000Y-98760000D01*
X218080000Y-96690000D01*
X214520000Y-98760000D01*
X211330000Y-96930000D01*
X214890000Y-94870000D01*
X211320000Y-92810000D01*
X214510000Y-90970000D01*
X218080000Y-93040000D01*
G36*
X187920000Y-93040000D02*
G01*
X191490000Y-90970000D01*
X194670000Y-92810000D01*
X191090000Y-94870000D01*
X194670000Y-96930000D01*
X191490000Y-98760000D01*
X187920000Y-96690000D01*
X184360000Y-98760000D01*
X181170000Y-96930000D01*
X184730000Y-94870000D01*
X181160000Y-92810000D01*
X184350000Y-90970000D01*
X187920000Y-93040000D01*
G37*
X187920000Y-93040000D02*
X191490000Y-90970000D01*
X194670000Y-92810000D01*
X191090000Y-94870000D01*
X194670000Y-96930000D01*
X191490000Y-98760000D01*
X187920000Y-96690000D01*
X184360000Y-98760000D01*
X181170000Y-96930000D01*
X184730000Y-94870000D01*
X181160000Y-92810000D01*
X184350000Y-90970000D01*
X187920000Y-93040000D01*
G36*
X191860000Y-94870000D02*
G01*
X194520000Y-96400000D01*
X194870000Y-96220000D01*
X194870000Y-93140000D01*
X191860000Y-94870000D01*
G37*
X191860000Y-94870000D02*
X194520000Y-96400000D01*
X194870000Y-96220000D01*
X194870000Y-93140000D01*
X191860000Y-94870000D01*
G36*
X183980000Y-94870000D02*
G01*
X181320000Y-96400000D01*
X180970000Y-96220000D01*
X180970000Y-93140000D01*
X183980000Y-94870000D01*
G37*
X183980000Y-94870000D02*
X181320000Y-96400000D01*
X180970000Y-96220000D01*
X180970000Y-93140000D01*
X183980000Y-94870000D01*
G36*
X177550000Y-98390000D02*
G01*
X180620000Y-100160000D01*
X180620000Y-96830000D01*
X180970000Y-96630000D01*
X180780000Y-96530000D01*
X177550000Y-98390000D01*
G37*
X177550000Y-98390000D02*
X180620000Y-100160000D01*
X180620000Y-96830000D01*
X180970000Y-96630000D01*
X180780000Y-96530000D01*
X177550000Y-98390000D01*
G36*
X188780000Y-107790000D02*
G01*
X191330000Y-109260000D01*
X191330000Y-106320000D01*
X188780000Y-107790000D01*
G37*
X188780000Y-107790000D02*
X191330000Y-109260000D01*
X191330000Y-106320000D01*
X188780000Y-107790000D01*
G36*
X198300000Y-98390000D02*
G01*
X195230000Y-100160000D01*
X195230000Y-96830000D01*
X194880000Y-96630000D01*
X195070000Y-96530000D01*
X198300000Y-98390000D01*
G37*
X198300000Y-98390000D02*
X195230000Y-100160000D01*
X195230000Y-96830000D01*
X194880000Y-96630000D01*
X195070000Y-96530000D01*
X198300000Y-98390000D01*
G36*
X187070000Y-107790000D02*
G01*
X184520000Y-109260000D01*
X184520000Y-106320000D01*
X187070000Y-107790000D01*
G37*
X187070000Y-107790000D02*
X184520000Y-109260000D01*
X184520000Y-106320000D01*
X187070000Y-107790000D01*
G36*
X191100000Y-102510000D02*
G01*
X187920000Y-104310000D01*
X184740000Y-102510000D01*
X187920000Y-100700000D01*
X191100000Y-102510000D01*
G37*
X191100000Y-102510000D02*
X187920000Y-104310000D01*
X184740000Y-102510000D01*
X187920000Y-100700000D01*
X191100000Y-102510000D01*
G36*
X188110000Y-100320000D02*
G01*
X191290000Y-102170000D01*
X191290000Y-99120000D01*
X188110000Y-97270000D01*
X188110000Y-100320000D01*
G37*
X188110000Y-100320000D02*
X191290000Y-102170000D01*
X191290000Y-99120000D01*
X188110000Y-97270000D01*
X188110000Y-100320000D01*
G36*
X187730000Y-100320000D02*
G01*
X184550000Y-102170000D01*
X184550000Y-99120000D01*
X187730000Y-97270000D01*
X187730000Y-100320000D01*
G37*
X187730000Y-100320000D02*
X184550000Y-102170000D01*
X184550000Y-99120000D01*
X187730000Y-97270000D01*
X187730000Y-100320000D01*
D11*
G36*
X194545000Y-100160000D02*
G01*
X194549180Y-100202626D01*
X194550350Y-100245444D01*
X194555688Y-100269007D01*
X194558046Y-100293051D01*
X194570426Y-100334055D01*
X194579890Y-100375828D01*
X194589703Y-100397903D01*
X194596686Y-100421033D01*
X194616798Y-100458858D01*
X194634193Y-100497991D01*
X194648105Y-100517738D01*
X194659449Y-100539073D01*
X194686520Y-100572266D01*
X194711189Y-100607281D01*
X194728677Y-100623955D01*
X194743944Y-100642674D01*
X194776941Y-100669972D01*
X194807947Y-100699534D01*
X194828340Y-100712493D01*
X194846953Y-100727891D01*
X194884626Y-100748261D01*
X194920780Y-100771235D01*
X194943302Y-100779986D01*
X194964552Y-100791476D01*
X195005465Y-100804141D01*
X195045392Y-100819655D01*
X195069182Y-100823865D01*
X195092262Y-100831009D01*
X195134861Y-100835486D01*
X195177036Y-100842949D01*
X195201190Y-100842458D01*
X195225218Y-100844983D01*
X195267874Y-100841101D01*
X195310697Y-100840230D01*
X195334294Y-100835057D01*
X195358356Y-100832867D01*
X195399450Y-100820772D01*
X195441284Y-100811601D01*
X195463427Y-100801943D01*
X195486606Y-100795121D01*
X195524566Y-100775276D01*
X195563824Y-100758153D01*
X195572143Y-100753434D01*
X197920139Y-99399703D01*
X197932795Y-99430256D01*
X198006123Y-99540000D01*
X197932795Y-99649744D01*
X197854774Y-99838102D01*
X197815000Y-100038061D01*
X197815000Y-100241939D01*
X197854774Y-100441898D01*
X197932795Y-100630256D01*
X198006123Y-100740000D01*
X197932795Y-100849744D01*
X197854774Y-101038102D01*
X197815000Y-101238061D01*
X197815000Y-101441939D01*
X197854774Y-101641898D01*
X197870222Y-101679192D01*
X194822387Y-103438882D01*
X194774613Y-103464416D01*
X194741064Y-103491948D01*
X194705778Y-103517234D01*
X194690915Y-103533103D01*
X194674114Y-103546891D01*
X194646580Y-103580440D01*
X194616906Y-103612123D01*
X194605427Y-103630584D01*
X194591635Y-103647388D01*
X194571173Y-103685668D01*
X194548253Y-103722527D01*
X194540596Y-103742872D01*
X194530348Y-103762044D01*
X194517746Y-103803585D01*
X194502459Y-103844203D01*
X194498918Y-103865649D01*
X194492607Y-103886453D01*
X194488352Y-103929648D01*
X194481281Y-103972475D01*
X194483054Y-104026628D01*
X194483005Y-107152867D01*
X192015000Y-108577761D01*
X192015000Y-106320000D01*
X192010821Y-106277379D01*
X192009654Y-106234595D01*
X192004314Y-106211019D01*
X192001954Y-106186949D01*
X191989578Y-106145957D01*
X191980122Y-106104209D01*
X191970303Y-106082116D01*
X191963314Y-106058967D01*
X191943214Y-106021164D01*
X191925827Y-105982043D01*
X191911902Y-105962276D01*
X191900551Y-105940927D01*
X191873495Y-105907753D01*
X191848837Y-105872749D01*
X191831336Y-105856061D01*
X191816056Y-105837326D01*
X191783070Y-105810037D01*
X191752084Y-105780491D01*
X191731678Y-105767522D01*
X191713047Y-105752109D01*
X191675386Y-105731746D01*
X191639255Y-105708783D01*
X191616717Y-105700024D01*
X191595448Y-105688524D01*
X191554549Y-105675864D01*
X191514646Y-105660356D01*
X191490839Y-105656142D01*
X191467738Y-105648991D01*
X191425155Y-105644515D01*
X191383002Y-105637054D01*
X191358828Y-105637544D01*
X191334782Y-105635017D01*
X191292149Y-105638897D01*
X191249342Y-105639765D01*
X191225723Y-105644942D01*
X191201644Y-105647133D01*
X191160568Y-105659222D01*
X191118754Y-105668387D01*
X191096595Y-105678051D01*
X191073394Y-105684879D01*
X191035446Y-105704717D01*
X190996211Y-105721828D01*
X190987891Y-105726547D01*
X188437892Y-107196547D01*
X188402519Y-107221837D01*
X188400831Y-107222876D01*
X188398780Y-107222809D01*
X188377319Y-107226352D01*
X188355586Y-107227064D01*
X188313322Y-107236918D01*
X188270508Y-107243987D01*
X188250161Y-107251645D01*
X188228974Y-107256585D01*
X188189434Y-107274501D01*
X188148832Y-107289782D01*
X188102833Y-107318386D01*
X187920204Y-107423828D01*
X187737465Y-107318331D01*
X187691451Y-107289717D01*
X187650826Y-107274427D01*
X187611284Y-107256512D01*
X187590112Y-107251576D01*
X187569775Y-107243922D01*
X187526951Y-107236852D01*
X187484671Y-107226995D01*
X187462947Y-107226284D01*
X187451652Y-107224420D01*
X187420360Y-107201381D01*
X187412108Y-107196546D01*
X184862108Y-105726547D01*
X184823113Y-105708889D01*
X184785448Y-105688524D01*
X184762347Y-105681373D01*
X184740323Y-105671400D01*
X184698639Y-105661652D01*
X184657738Y-105648991D01*
X184633691Y-105646464D01*
X184610148Y-105640958D01*
X184567358Y-105639492D01*
X184524782Y-105635017D01*
X184500705Y-105637208D01*
X184476537Y-105636380D01*
X184434280Y-105643253D01*
X184391644Y-105647133D01*
X184368444Y-105653961D01*
X184344583Y-105657842D01*
X184304470Y-105672790D01*
X184263394Y-105684879D01*
X184241967Y-105696081D01*
X184219309Y-105704524D01*
X184182862Y-105726980D01*
X184144919Y-105746816D01*
X184126070Y-105761971D01*
X184105490Y-105774651D01*
X184074102Y-105803755D01*
X184040731Y-105830586D01*
X184025189Y-105849109D01*
X184007458Y-105865549D01*
X183982317Y-105900201D01*
X183954797Y-105932998D01*
X183943147Y-105954189D01*
X183928950Y-105973757D01*
X183911021Y-106012626D01*
X183890392Y-106050150D01*
X183883080Y-106073200D01*
X183872954Y-106095153D01*
X183862915Y-106136770D01*
X183849969Y-106177580D01*
X183847274Y-106201606D01*
X183841603Y-106225115D01*
X183839838Y-106267900D01*
X183835067Y-106310436D01*
X183835000Y-106320000D01*
X183835000Y-108583301D01*
X181357410Y-107152870D01*
X181357380Y-104026636D01*
X181359154Y-103972474D01*
X181352083Y-103929648D01*
X181347829Y-103886457D01*
X181341517Y-103865651D01*
X181337976Y-103844202D01*
X181322687Y-103803579D01*
X181310088Y-103762048D01*
X181299841Y-103742877D01*
X181292181Y-103722525D01*
X181269259Y-103685662D01*
X181248802Y-103647391D01*
X181235012Y-103630588D01*
X181223529Y-103612122D01*
X181193850Y-103580434D01*
X181166324Y-103546894D01*
X181149525Y-103533108D01*
X181134657Y-103517233D01*
X181099363Y-103491941D01*
X181065825Y-103464418D01*
X181018066Y-103438891D01*
X177788183Y-101574096D01*
X177788183Y-99318019D01*
X180277858Y-100753434D01*
X180316877Y-100771105D01*
X180354552Y-100791476D01*
X180377630Y-100798620D01*
X180399640Y-100808588D01*
X180441348Y-100818344D01*
X180482262Y-100831009D01*
X180506289Y-100833534D01*
X180529814Y-100839037D01*
X180572621Y-100840506D01*
X180615218Y-100844983D01*
X180639278Y-100842793D01*
X180663424Y-100843622D01*
X180705696Y-100836749D01*
X180748356Y-100832867D01*
X180771538Y-100826044D01*
X180795379Y-100822168D01*
X180835510Y-100807216D01*
X180876606Y-100795121D01*
X180898017Y-100783928D01*
X180920656Y-100775493D01*
X180957121Y-100753029D01*
X180995081Y-100733184D01*
X181013913Y-100718043D01*
X181034479Y-100705373D01*
X181065887Y-100676254D01*
X181099269Y-100649414D01*
X181114796Y-100630909D01*
X181132516Y-100614481D01*
X181157675Y-100579808D01*
X181185203Y-100547002D01*
X181196841Y-100525833D01*
X181211031Y-100506277D01*
X181228975Y-100467381D01*
X181249608Y-100429850D01*
X181256912Y-100406824D01*
X181267034Y-100384884D01*
X181277083Y-100343238D01*
X181290031Y-100302420D01*
X181292723Y-100278419D01*
X181298392Y-100254925D01*
X181300161Y-100212111D01*
X181304933Y-100169564D01*
X181305000Y-100160000D01*
X181305000Y-97797157D01*
X183865000Y-99265747D01*
X183865000Y-102170000D01*
X183869310Y-102213953D01*
X183870689Y-102258097D01*
X183875819Y-102280335D01*
X183878046Y-102303051D01*
X183890812Y-102345335D01*
X183900738Y-102388365D01*
X183910089Y-102409182D01*
X183916686Y-102431033D01*
X183937422Y-102470033D01*
X183955517Y-102510315D01*
X183968733Y-102528920D01*
X183979449Y-102549073D01*
X184007361Y-102583296D01*
X184032939Y-102619303D01*
X184049521Y-102634990D01*
X184063944Y-102652674D01*
X184073892Y-102660904D01*
X184077997Y-102686003D01*
X184084623Y-102703735D01*
X184088703Y-102722220D01*
X184107974Y-102766229D01*
X184124791Y-102811235D01*
X184134737Y-102827346D01*
X184142328Y-102844682D01*
X184169774Y-102884103D01*
X184195017Y-102924993D01*
X184207900Y-102938862D01*
X184218716Y-102954397D01*
X184253307Y-102987745D01*
X184286002Y-103022943D01*
X184301332Y-103034045D01*
X184314962Y-103047185D01*
X184355375Y-103073182D01*
X184394280Y-103101356D01*
X184402570Y-103106126D01*
X187582571Y-104906126D01*
X187594751Y-104911526D01*
X187605947Y-104918766D01*
X187655790Y-104938589D01*
X187704786Y-104960313D01*
X187717781Y-104963244D01*
X187730171Y-104968172D01*
X187782906Y-104977935D01*
X187835197Y-104989730D01*
X187848520Y-104990082D01*
X187861627Y-104992508D01*
X187915235Y-104991842D01*
X187968839Y-104993257D01*
X187981980Y-104991013D01*
X187995305Y-104990848D01*
X188047767Y-104979782D01*
X188100620Y-104970758D01*
X188113072Y-104966006D01*
X188126114Y-104963255D01*
X188175420Y-104942212D01*
X188225523Y-104923092D01*
X188236819Y-104916009D01*
X188249074Y-104910779D01*
X188257430Y-104906126D01*
X191437430Y-103106126D01*
X191476737Y-103078489D01*
X191517497Y-103053066D01*
X191531305Y-103040121D01*
X191546792Y-103029232D01*
X191579975Y-102994493D01*
X191615028Y-102961632D01*
X191626063Y-102946246D01*
X191639135Y-102932561D01*
X191664939Y-102892040D01*
X191692942Y-102852994D01*
X191700776Y-102835762D01*
X191710944Y-102819795D01*
X191728385Y-102775033D01*
X191748271Y-102731293D01*
X191752610Y-102712864D01*
X191759481Y-102695229D01*
X191765283Y-102662619D01*
X191769269Y-102659414D01*
X191783938Y-102641932D01*
X191800738Y-102626478D01*
X191826817Y-102590831D01*
X191855203Y-102557002D01*
X191866198Y-102537002D01*
X191879674Y-102518582D01*
X191898332Y-102478551D01*
X191919608Y-102439850D01*
X191926508Y-102418098D01*
X191936151Y-102397409D01*
X191946680Y-102354509D01*
X191960031Y-102312420D01*
X191962574Y-102289744D01*
X191968016Y-102267572D01*
X191970012Y-102223440D01*
X191974933Y-102179564D01*
X191975000Y-102170000D01*
X191975000Y-99271224D01*
X194545000Y-97792261D01*
X194545000Y-100160000D01*
G37*
X194545000Y-100160000D02*
X194549180Y-100202626D01*
X194550350Y-100245444D01*
X194555688Y-100269007D01*
X194558046Y-100293051D01*
X194570426Y-100334055D01*
X194579890Y-100375828D01*
X194589703Y-100397903D01*
X194596686Y-100421033D01*
X194616798Y-100458858D01*
X194634193Y-100497991D01*
X194648105Y-100517738D01*
X194659449Y-100539073D01*
X194686520Y-100572266D01*
X194711189Y-100607281D01*
X194728677Y-100623955D01*
X194743944Y-100642674D01*
X194776941Y-100669972D01*
X194807947Y-100699534D01*
X194828340Y-100712493D01*
X194846953Y-100727891D01*
X194884626Y-100748261D01*
X194920780Y-100771235D01*
X194943302Y-100779986D01*
X194964552Y-100791476D01*
X195005465Y-100804141D01*
X195045392Y-100819655D01*
X195069182Y-100823865D01*
X195092262Y-100831009D01*
X195134861Y-100835486D01*
X195177036Y-100842949D01*
X195201190Y-100842458D01*
X195225218Y-100844983D01*
X195267874Y-100841101D01*
X195310697Y-100840230D01*
X195334294Y-100835057D01*
X195358356Y-100832867D01*
X195399450Y-100820772D01*
X195441284Y-100811601D01*
X195463427Y-100801943D01*
X195486606Y-100795121D01*
X195524566Y-100775276D01*
X195563824Y-100758153D01*
X195572143Y-100753434D01*
X197920139Y-99399703D01*
X197932795Y-99430256D01*
X198006123Y-99540000D01*
X197932795Y-99649744D01*
X197854774Y-99838102D01*
X197815000Y-100038061D01*
X197815000Y-100241939D01*
X197854774Y-100441898D01*
X197932795Y-100630256D01*
X198006123Y-100740000D01*
X197932795Y-100849744D01*
X197854774Y-101038102D01*
X197815000Y-101238061D01*
X197815000Y-101441939D01*
X197854774Y-101641898D01*
X197870222Y-101679192D01*
X194822387Y-103438882D01*
X194774613Y-103464416D01*
X194741064Y-103491948D01*
X194705778Y-103517234D01*
X194690915Y-103533103D01*
X194674114Y-103546891D01*
X194646580Y-103580440D01*
X194616906Y-103612123D01*
X194605427Y-103630584D01*
X194591635Y-103647388D01*
X194571173Y-103685668D01*
X194548253Y-103722527D01*
X194540596Y-103742872D01*
X194530348Y-103762044D01*
X194517746Y-103803585D01*
X194502459Y-103844203D01*
X194498918Y-103865649D01*
X194492607Y-103886453D01*
X194488352Y-103929648D01*
X194481281Y-103972475D01*
X194483054Y-104026628D01*
X194483005Y-107152867D01*
X192015000Y-108577761D01*
X192015000Y-106320000D01*
X192010821Y-106277379D01*
X192009654Y-106234595D01*
X192004314Y-106211019D01*
X192001954Y-106186949D01*
X191989578Y-106145957D01*
X191980122Y-106104209D01*
X191970303Y-106082116D01*
X191963314Y-106058967D01*
X191943214Y-106021164D01*
X191925827Y-105982043D01*
X191911902Y-105962276D01*
X191900551Y-105940927D01*
X191873495Y-105907753D01*
X191848837Y-105872749D01*
X191831336Y-105856061D01*
X191816056Y-105837326D01*
X191783070Y-105810037D01*
X191752084Y-105780491D01*
X191731678Y-105767522D01*
X191713047Y-105752109D01*
X191675386Y-105731746D01*
X191639255Y-105708783D01*
X191616717Y-105700024D01*
X191595448Y-105688524D01*
X191554549Y-105675864D01*
X191514646Y-105660356D01*
X191490839Y-105656142D01*
X191467738Y-105648991D01*
X191425155Y-105644515D01*
X191383002Y-105637054D01*
X191358828Y-105637544D01*
X191334782Y-105635017D01*
X191292149Y-105638897D01*
X191249342Y-105639765D01*
X191225723Y-105644942D01*
X191201644Y-105647133D01*
X191160568Y-105659222D01*
X191118754Y-105668387D01*
X191096595Y-105678051D01*
X191073394Y-105684879D01*
X191035446Y-105704717D01*
X190996211Y-105721828D01*
X190987891Y-105726547D01*
X188437892Y-107196547D01*
X188402519Y-107221837D01*
X188400831Y-107222876D01*
X188398780Y-107222809D01*
X188377319Y-107226352D01*
X188355586Y-107227064D01*
X188313322Y-107236918D01*
X188270508Y-107243987D01*
X188250161Y-107251645D01*
X188228974Y-107256585D01*
X188189434Y-107274501D01*
X188148832Y-107289782D01*
X188102833Y-107318386D01*
X187920204Y-107423828D01*
X187737465Y-107318331D01*
X187691451Y-107289717D01*
X187650826Y-107274427D01*
X187611284Y-107256512D01*
X187590112Y-107251576D01*
X187569775Y-107243922D01*
X187526951Y-107236852D01*
X187484671Y-107226995D01*
X187462947Y-107226284D01*
X187451652Y-107224420D01*
X187420360Y-107201381D01*
X187412108Y-107196546D01*
X184862108Y-105726547D01*
X184823113Y-105708889D01*
X184785448Y-105688524D01*
X184762347Y-105681373D01*
X184740323Y-105671400D01*
X184698639Y-105661652D01*
X184657738Y-105648991D01*
X184633691Y-105646464D01*
X184610148Y-105640958D01*
X184567358Y-105639492D01*
X184524782Y-105635017D01*
X184500705Y-105637208D01*
X184476537Y-105636380D01*
X184434280Y-105643253D01*
X184391644Y-105647133D01*
X184368444Y-105653961D01*
X184344583Y-105657842D01*
X184304470Y-105672790D01*
X184263394Y-105684879D01*
X184241967Y-105696081D01*
X184219309Y-105704524D01*
X184182862Y-105726980D01*
X184144919Y-105746816D01*
X184126070Y-105761971D01*
X184105490Y-105774651D01*
X184074102Y-105803755D01*
X184040731Y-105830586D01*
X184025189Y-105849109D01*
X184007458Y-105865549D01*
X183982317Y-105900201D01*
X183954797Y-105932998D01*
X183943147Y-105954189D01*
X183928950Y-105973757D01*
X183911021Y-106012626D01*
X183890392Y-106050150D01*
X183883080Y-106073200D01*
X183872954Y-106095153D01*
X183862915Y-106136770D01*
X183849969Y-106177580D01*
X183847274Y-106201606D01*
X183841603Y-106225115D01*
X183839838Y-106267900D01*
X183835067Y-106310436D01*
X183835000Y-106320000D01*
X183835000Y-108583301D01*
X181357410Y-107152870D01*
X181357380Y-104026636D01*
X181359154Y-103972474D01*
X181352083Y-103929648D01*
X181347829Y-103886457D01*
X181341517Y-103865651D01*
X181337976Y-103844202D01*
X181322687Y-103803579D01*
X181310088Y-103762048D01*
X181299841Y-103742877D01*
X181292181Y-103722525D01*
X181269259Y-103685662D01*
X181248802Y-103647391D01*
X181235012Y-103630588D01*
X181223529Y-103612122D01*
X181193850Y-103580434D01*
X181166324Y-103546894D01*
X181149525Y-103533108D01*
X181134657Y-103517233D01*
X181099363Y-103491941D01*
X181065825Y-103464418D01*
X181018066Y-103438891D01*
X177788183Y-101574096D01*
X177788183Y-99318019D01*
X180277858Y-100753434D01*
X180316877Y-100771105D01*
X180354552Y-100791476D01*
X180377630Y-100798620D01*
X180399640Y-100808588D01*
X180441348Y-100818344D01*
X180482262Y-100831009D01*
X180506289Y-100833534D01*
X180529814Y-100839037D01*
X180572621Y-100840506D01*
X180615218Y-100844983D01*
X180639278Y-100842793D01*
X180663424Y-100843622D01*
X180705696Y-100836749D01*
X180748356Y-100832867D01*
X180771538Y-100826044D01*
X180795379Y-100822168D01*
X180835510Y-100807216D01*
X180876606Y-100795121D01*
X180898017Y-100783928D01*
X180920656Y-100775493D01*
X180957121Y-100753029D01*
X180995081Y-100733184D01*
X181013913Y-100718043D01*
X181034479Y-100705373D01*
X181065887Y-100676254D01*
X181099269Y-100649414D01*
X181114796Y-100630909D01*
X181132516Y-100614481D01*
X181157675Y-100579808D01*
X181185203Y-100547002D01*
X181196841Y-100525833D01*
X181211031Y-100506277D01*
X181228975Y-100467381D01*
X181249608Y-100429850D01*
X181256912Y-100406824D01*
X181267034Y-100384884D01*
X181277083Y-100343238D01*
X181290031Y-100302420D01*
X181292723Y-100278419D01*
X181298392Y-100254925D01*
X181300161Y-100212111D01*
X181304933Y-100169564D01*
X181305000Y-100160000D01*
X181305000Y-97797157D01*
X183865000Y-99265747D01*
X183865000Y-102170000D01*
X183869310Y-102213953D01*
X183870689Y-102258097D01*
X183875819Y-102280335D01*
X183878046Y-102303051D01*
X183890812Y-102345335D01*
X183900738Y-102388365D01*
X183910089Y-102409182D01*
X183916686Y-102431033D01*
X183937422Y-102470033D01*
X183955517Y-102510315D01*
X183968733Y-102528920D01*
X183979449Y-102549073D01*
X184007361Y-102583296D01*
X184032939Y-102619303D01*
X184049521Y-102634990D01*
X184063944Y-102652674D01*
X184073892Y-102660904D01*
X184077997Y-102686003D01*
X184084623Y-102703735D01*
X184088703Y-102722220D01*
X184107974Y-102766229D01*
X184124791Y-102811235D01*
X184134737Y-102827346D01*
X184142328Y-102844682D01*
X184169774Y-102884103D01*
X184195017Y-102924993D01*
X184207900Y-102938862D01*
X184218716Y-102954397D01*
X184253307Y-102987745D01*
X184286002Y-103022943D01*
X184301332Y-103034045D01*
X184314962Y-103047185D01*
X184355375Y-103073182D01*
X184394280Y-103101356D01*
X184402570Y-103106126D01*
X187582571Y-104906126D01*
X187594751Y-104911526D01*
X187605947Y-104918766D01*
X187655790Y-104938589D01*
X187704786Y-104960313D01*
X187717781Y-104963244D01*
X187730171Y-104968172D01*
X187782906Y-104977935D01*
X187835197Y-104989730D01*
X187848520Y-104990082D01*
X187861627Y-104992508D01*
X187915235Y-104991842D01*
X187968839Y-104993257D01*
X187981980Y-104991013D01*
X187995305Y-104990848D01*
X188047767Y-104979782D01*
X188100620Y-104970758D01*
X188113072Y-104966006D01*
X188126114Y-104963255D01*
X188175420Y-104942212D01*
X188225523Y-104923092D01*
X188236819Y-104916009D01*
X188249074Y-104910779D01*
X188257430Y-104906126D01*
X191437430Y-103106126D01*
X191476737Y-103078489D01*
X191517497Y-103053066D01*
X191531305Y-103040121D01*
X191546792Y-103029232D01*
X191579975Y-102994493D01*
X191615028Y-102961632D01*
X191626063Y-102946246D01*
X191639135Y-102932561D01*
X191664939Y-102892040D01*
X191692942Y-102852994D01*
X191700776Y-102835762D01*
X191710944Y-102819795D01*
X191728385Y-102775033D01*
X191748271Y-102731293D01*
X191752610Y-102712864D01*
X191759481Y-102695229D01*
X191765283Y-102662619D01*
X191769269Y-102659414D01*
X191783938Y-102641932D01*
X191800738Y-102626478D01*
X191826817Y-102590831D01*
X191855203Y-102557002D01*
X191866198Y-102537002D01*
X191879674Y-102518582D01*
X191898332Y-102478551D01*
X191919608Y-102439850D01*
X191926508Y-102418098D01*
X191936151Y-102397409D01*
X191946680Y-102354509D01*
X191960031Y-102312420D01*
X191962574Y-102289744D01*
X191968016Y-102267572D01*
X191970012Y-102223440D01*
X191974933Y-102179564D01*
X191975000Y-102170000D01*
X191975000Y-99271224D01*
X194545000Y-97792261D01*
X194545000Y-100160000D01*
G36*
X224705000Y-100160000D02*
G01*
X224709180Y-100202626D01*
X224710350Y-100245444D01*
X224715688Y-100269007D01*
X224718046Y-100293051D01*
X224730426Y-100334055D01*
X224739890Y-100375828D01*
X224749703Y-100397903D01*
X224756686Y-100421033D01*
X224776798Y-100458858D01*
X224794193Y-100497991D01*
X224808105Y-100517738D01*
X224819449Y-100539073D01*
X224846520Y-100572266D01*
X224871189Y-100607281D01*
X224888677Y-100623955D01*
X224903944Y-100642674D01*
X224936941Y-100669972D01*
X224967947Y-100699534D01*
X224988340Y-100712493D01*
X225006953Y-100727891D01*
X225044626Y-100748261D01*
X225080780Y-100771235D01*
X225103302Y-100779986D01*
X225124552Y-100791476D01*
X225165465Y-100804141D01*
X225205392Y-100819655D01*
X225229182Y-100823865D01*
X225252262Y-100831009D01*
X225294861Y-100835486D01*
X225337036Y-100842949D01*
X225361190Y-100842458D01*
X225385218Y-100844983D01*
X225427874Y-100841101D01*
X225470697Y-100840230D01*
X225494294Y-100835057D01*
X225518356Y-100832867D01*
X225559450Y-100820772D01*
X225601284Y-100811601D01*
X225623427Y-100801943D01*
X225646606Y-100795121D01*
X225684566Y-100775276D01*
X225723824Y-100758153D01*
X225732143Y-100753434D01*
X228212252Y-99323533D01*
X228212253Y-101574095D01*
X224982387Y-103438882D01*
X224934613Y-103464416D01*
X224901064Y-103491948D01*
X224865778Y-103517234D01*
X224850915Y-103533103D01*
X224834114Y-103546891D01*
X224806580Y-103580440D01*
X224776906Y-103612123D01*
X224765427Y-103630584D01*
X224751635Y-103647388D01*
X224731173Y-103685668D01*
X224708253Y-103722527D01*
X224700596Y-103742872D01*
X224690348Y-103762044D01*
X224677746Y-103803585D01*
X224662459Y-103844203D01*
X224658918Y-103865649D01*
X224652607Y-103886453D01*
X224648352Y-103929648D01*
X224641281Y-103972475D01*
X224643054Y-104026628D01*
X224643005Y-107152867D01*
X222175000Y-108577761D01*
X222175000Y-106320000D01*
X222170821Y-106277379D01*
X222169654Y-106234595D01*
X222164314Y-106211019D01*
X222161954Y-106186949D01*
X222149578Y-106145957D01*
X222140122Y-106104209D01*
X222130303Y-106082116D01*
X222123314Y-106058967D01*
X222103214Y-106021164D01*
X222085827Y-105982043D01*
X222071902Y-105962276D01*
X222060551Y-105940927D01*
X222033495Y-105907753D01*
X222008837Y-105872749D01*
X221991336Y-105856061D01*
X221976056Y-105837326D01*
X221943070Y-105810037D01*
X221912084Y-105780491D01*
X221891678Y-105767522D01*
X221873047Y-105752109D01*
X221835386Y-105731746D01*
X221799255Y-105708783D01*
X221776717Y-105700024D01*
X221755448Y-105688524D01*
X221714549Y-105675864D01*
X221674646Y-105660356D01*
X221650839Y-105656142D01*
X221627738Y-105648991D01*
X221585155Y-105644515D01*
X221543002Y-105637054D01*
X221518828Y-105637544D01*
X221494782Y-105635017D01*
X221452149Y-105638897D01*
X221409342Y-105639765D01*
X221385723Y-105644942D01*
X221361644Y-105647133D01*
X221320568Y-105659222D01*
X221278754Y-105668387D01*
X221256595Y-105678051D01*
X221233394Y-105684879D01*
X221195446Y-105704717D01*
X221156211Y-105721828D01*
X221147891Y-105726547D01*
X218597892Y-107196547D01*
X218562519Y-107221837D01*
X218560831Y-107222876D01*
X218558780Y-107222809D01*
X218537319Y-107226352D01*
X218515586Y-107227064D01*
X218473322Y-107236918D01*
X218430508Y-107243987D01*
X218410161Y-107251645D01*
X218388974Y-107256585D01*
X218349434Y-107274501D01*
X218308832Y-107289782D01*
X218262833Y-107318386D01*
X218080204Y-107423828D01*
X217897465Y-107318331D01*
X217851451Y-107289717D01*
X217810826Y-107274427D01*
X217771284Y-107256512D01*
X217750112Y-107251576D01*
X217729775Y-107243922D01*
X217686951Y-107236852D01*
X217644671Y-107226995D01*
X217622947Y-107226284D01*
X217611652Y-107224420D01*
X217580360Y-107201381D01*
X217572108Y-107196546D01*
X215022108Y-105726547D01*
X214983113Y-105708889D01*
X214945448Y-105688524D01*
X214922347Y-105681373D01*
X214900323Y-105671400D01*
X214858639Y-105661652D01*
X214817738Y-105648991D01*
X214793691Y-105646464D01*
X214770148Y-105640958D01*
X214727358Y-105639492D01*
X214684782Y-105635017D01*
X214660705Y-105637208D01*
X214636537Y-105636380D01*
X214594280Y-105643253D01*
X214551644Y-105647133D01*
X214528444Y-105653961D01*
X214504583Y-105657842D01*
X214464470Y-105672790D01*
X214423394Y-105684879D01*
X214401967Y-105696081D01*
X214379309Y-105704524D01*
X214342862Y-105726980D01*
X214304919Y-105746816D01*
X214286070Y-105761971D01*
X214265490Y-105774651D01*
X214234102Y-105803755D01*
X214200731Y-105830586D01*
X214185189Y-105849109D01*
X214167458Y-105865549D01*
X214142317Y-105900201D01*
X214114797Y-105932998D01*
X214103147Y-105954189D01*
X214088950Y-105973757D01*
X214071021Y-106012626D01*
X214050392Y-106050150D01*
X214043080Y-106073200D01*
X214032954Y-106095153D01*
X214022915Y-106136770D01*
X214009969Y-106177580D01*
X214007274Y-106201606D01*
X214001603Y-106225115D01*
X213999838Y-106267900D01*
X213995067Y-106310436D01*
X213995000Y-106320000D01*
X213995000Y-108583301D01*
X211517410Y-107152870D01*
X211517380Y-104026636D01*
X211519154Y-103972474D01*
X211512083Y-103929648D01*
X211507829Y-103886457D01*
X211501517Y-103865651D01*
X211497976Y-103844202D01*
X211482687Y-103803579D01*
X211470088Y-103762048D01*
X211459841Y-103742877D01*
X211452181Y-103722525D01*
X211429259Y-103685662D01*
X211408802Y-103647391D01*
X211395012Y-103630588D01*
X211383529Y-103612122D01*
X211353850Y-103580434D01*
X211326324Y-103546894D01*
X211309525Y-103533108D01*
X211294657Y-103517233D01*
X211259363Y-103491941D01*
X211225825Y-103464418D01*
X211178066Y-103438891D01*
X208141275Y-101685579D01*
X208155226Y-101651898D01*
X208195000Y-101451939D01*
X208195000Y-101248061D01*
X208155226Y-101048102D01*
X208077205Y-100859744D01*
X208003877Y-100750000D01*
X208077205Y-100640256D01*
X208155226Y-100451898D01*
X208195000Y-100251939D01*
X208195000Y-100048061D01*
X208155226Y-99848102D01*
X208077205Y-99659744D01*
X208003877Y-99550000D01*
X208077205Y-99440256D01*
X208093204Y-99401631D01*
X210437858Y-100753434D01*
X210476877Y-100771105D01*
X210514552Y-100791476D01*
X210537630Y-100798620D01*
X210559640Y-100808588D01*
X210601348Y-100818344D01*
X210642262Y-100831009D01*
X210666289Y-100833534D01*
X210689814Y-100839037D01*
X210732621Y-100840506D01*
X210775218Y-100844983D01*
X210799278Y-100842793D01*
X210823424Y-100843622D01*
X210865696Y-100836749D01*
X210908356Y-100832867D01*
X210931538Y-100826044D01*
X210955379Y-100822168D01*
X210995510Y-100807216D01*
X211036606Y-100795121D01*
X211058017Y-100783928D01*
X211080656Y-100775493D01*
X211117121Y-100753029D01*
X211155081Y-100733184D01*
X211173913Y-100718043D01*
X211194479Y-100705373D01*
X211225887Y-100676254D01*
X211259269Y-100649414D01*
X211274796Y-100630909D01*
X211292516Y-100614481D01*
X211317675Y-100579808D01*
X211345203Y-100547002D01*
X211356841Y-100525833D01*
X211371031Y-100506277D01*
X211388975Y-100467381D01*
X211409608Y-100429850D01*
X211416912Y-100406824D01*
X211427034Y-100384884D01*
X211437083Y-100343238D01*
X211450031Y-100302420D01*
X211452723Y-100278419D01*
X211458392Y-100254925D01*
X211460161Y-100212111D01*
X211464933Y-100169564D01*
X211465000Y-100160000D01*
X211465000Y-97797157D01*
X214025000Y-99265747D01*
X214025000Y-102170000D01*
X214029310Y-102213953D01*
X214030689Y-102258097D01*
X214035819Y-102280335D01*
X214038046Y-102303051D01*
X214050812Y-102345335D01*
X214060738Y-102388365D01*
X214070089Y-102409182D01*
X214076686Y-102431033D01*
X214097422Y-102470033D01*
X214115517Y-102510315D01*
X214128733Y-102528920D01*
X214139449Y-102549073D01*
X214167361Y-102583296D01*
X214192939Y-102619303D01*
X214209521Y-102634990D01*
X214223944Y-102652674D01*
X214233892Y-102660904D01*
X214237997Y-102686003D01*
X214244623Y-102703735D01*
X214248703Y-102722220D01*
X214267974Y-102766229D01*
X214284791Y-102811235D01*
X214294737Y-102827346D01*
X214302328Y-102844682D01*
X214329774Y-102884103D01*
X214355017Y-102924993D01*
X214367900Y-102938862D01*
X214378716Y-102954397D01*
X214413307Y-102987745D01*
X214446002Y-103022943D01*
X214461332Y-103034045D01*
X214474962Y-103047185D01*
X214515375Y-103073182D01*
X214554280Y-103101356D01*
X214562570Y-103106126D01*
X217742571Y-104906126D01*
X217754751Y-104911526D01*
X217765947Y-104918766D01*
X217815790Y-104938589D01*
X217864786Y-104960313D01*
X217877781Y-104963244D01*
X217890171Y-104968172D01*
X217942906Y-104977935D01*
X217995197Y-104989730D01*
X218008520Y-104990082D01*
X218021627Y-104992508D01*
X218075235Y-104991842D01*
X218128839Y-104993257D01*
X218141980Y-104991013D01*
X218155305Y-104990848D01*
X218207767Y-104979782D01*
X218260620Y-104970758D01*
X218273072Y-104966006D01*
X218286114Y-104963255D01*
X218335420Y-104942212D01*
X218385523Y-104923092D01*
X218396819Y-104916009D01*
X218409074Y-104910779D01*
X218417430Y-104906126D01*
X221597430Y-103106126D01*
X221636737Y-103078489D01*
X221677497Y-103053066D01*
X221691305Y-103040121D01*
X221706792Y-103029232D01*
X221739975Y-102994493D01*
X221775028Y-102961632D01*
X221786063Y-102946246D01*
X221799135Y-102932561D01*
X221824939Y-102892040D01*
X221852942Y-102852994D01*
X221860776Y-102835762D01*
X221870944Y-102819795D01*
X221888385Y-102775033D01*
X221908271Y-102731293D01*
X221912610Y-102712864D01*
X221919481Y-102695229D01*
X221925283Y-102662619D01*
X221929269Y-102659414D01*
X221943938Y-102641932D01*
X221960738Y-102626478D01*
X221986817Y-102590831D01*
X222015203Y-102557002D01*
X222026198Y-102537002D01*
X222039674Y-102518582D01*
X222058332Y-102478551D01*
X222079608Y-102439850D01*
X222086508Y-102418098D01*
X222096151Y-102397409D01*
X222106680Y-102354509D01*
X222120031Y-102312420D01*
X222122574Y-102289744D01*
X222128016Y-102267572D01*
X222130012Y-102223440D01*
X222134933Y-102179564D01*
X222135000Y-102170000D01*
X222135000Y-99271224D01*
X224705000Y-97792261D01*
X224705000Y-100160000D01*
G37*
X224705000Y-100160000D02*
X224709180Y-100202626D01*
X224710350Y-100245444D01*
X224715688Y-100269007D01*
X224718046Y-100293051D01*
X224730426Y-100334055D01*
X224739890Y-100375828D01*
X224749703Y-100397903D01*
X224756686Y-100421033D01*
X224776798Y-100458858D01*
X224794193Y-100497991D01*
X224808105Y-100517738D01*
X224819449Y-100539073D01*
X224846520Y-100572266D01*
X224871189Y-100607281D01*
X224888677Y-100623955D01*
X224903944Y-100642674D01*
X224936941Y-100669972D01*
X224967947Y-100699534D01*
X224988340Y-100712493D01*
X225006953Y-100727891D01*
X225044626Y-100748261D01*
X225080780Y-100771235D01*
X225103302Y-100779986D01*
X225124552Y-100791476D01*
X225165465Y-100804141D01*
X225205392Y-100819655D01*
X225229182Y-100823865D01*
X225252262Y-100831009D01*
X225294861Y-100835486D01*
X225337036Y-100842949D01*
X225361190Y-100842458D01*
X225385218Y-100844983D01*
X225427874Y-100841101D01*
X225470697Y-100840230D01*
X225494294Y-100835057D01*
X225518356Y-100832867D01*
X225559450Y-100820772D01*
X225601284Y-100811601D01*
X225623427Y-100801943D01*
X225646606Y-100795121D01*
X225684566Y-100775276D01*
X225723824Y-100758153D01*
X225732143Y-100753434D01*
X228212252Y-99323533D01*
X228212253Y-101574095D01*
X224982387Y-103438882D01*
X224934613Y-103464416D01*
X224901064Y-103491948D01*
X224865778Y-103517234D01*
X224850915Y-103533103D01*
X224834114Y-103546891D01*
X224806580Y-103580440D01*
X224776906Y-103612123D01*
X224765427Y-103630584D01*
X224751635Y-103647388D01*
X224731173Y-103685668D01*
X224708253Y-103722527D01*
X224700596Y-103742872D01*
X224690348Y-103762044D01*
X224677746Y-103803585D01*
X224662459Y-103844203D01*
X224658918Y-103865649D01*
X224652607Y-103886453D01*
X224648352Y-103929648D01*
X224641281Y-103972475D01*
X224643054Y-104026628D01*
X224643005Y-107152867D01*
X222175000Y-108577761D01*
X222175000Y-106320000D01*
X222170821Y-106277379D01*
X222169654Y-106234595D01*
X222164314Y-106211019D01*
X222161954Y-106186949D01*
X222149578Y-106145957D01*
X222140122Y-106104209D01*
X222130303Y-106082116D01*
X222123314Y-106058967D01*
X222103214Y-106021164D01*
X222085827Y-105982043D01*
X222071902Y-105962276D01*
X222060551Y-105940927D01*
X222033495Y-105907753D01*
X222008837Y-105872749D01*
X221991336Y-105856061D01*
X221976056Y-105837326D01*
X221943070Y-105810037D01*
X221912084Y-105780491D01*
X221891678Y-105767522D01*
X221873047Y-105752109D01*
X221835386Y-105731746D01*
X221799255Y-105708783D01*
X221776717Y-105700024D01*
X221755448Y-105688524D01*
X221714549Y-105675864D01*
X221674646Y-105660356D01*
X221650839Y-105656142D01*
X221627738Y-105648991D01*
X221585155Y-105644515D01*
X221543002Y-105637054D01*
X221518828Y-105637544D01*
X221494782Y-105635017D01*
X221452149Y-105638897D01*
X221409342Y-105639765D01*
X221385723Y-105644942D01*
X221361644Y-105647133D01*
X221320568Y-105659222D01*
X221278754Y-105668387D01*
X221256595Y-105678051D01*
X221233394Y-105684879D01*
X221195446Y-105704717D01*
X221156211Y-105721828D01*
X221147891Y-105726547D01*
X218597892Y-107196547D01*
X218562519Y-107221837D01*
X218560831Y-107222876D01*
X218558780Y-107222809D01*
X218537319Y-107226352D01*
X218515586Y-107227064D01*
X218473322Y-107236918D01*
X218430508Y-107243987D01*
X218410161Y-107251645D01*
X218388974Y-107256585D01*
X218349434Y-107274501D01*
X218308832Y-107289782D01*
X218262833Y-107318386D01*
X218080204Y-107423828D01*
X217897465Y-107318331D01*
X217851451Y-107289717D01*
X217810826Y-107274427D01*
X217771284Y-107256512D01*
X217750112Y-107251576D01*
X217729775Y-107243922D01*
X217686951Y-107236852D01*
X217644671Y-107226995D01*
X217622947Y-107226284D01*
X217611652Y-107224420D01*
X217580360Y-107201381D01*
X217572108Y-107196546D01*
X215022108Y-105726547D01*
X214983113Y-105708889D01*
X214945448Y-105688524D01*
X214922347Y-105681373D01*
X214900323Y-105671400D01*
X214858639Y-105661652D01*
X214817738Y-105648991D01*
X214793691Y-105646464D01*
X214770148Y-105640958D01*
X214727358Y-105639492D01*
X214684782Y-105635017D01*
X214660705Y-105637208D01*
X214636537Y-105636380D01*
X214594280Y-105643253D01*
X214551644Y-105647133D01*
X214528444Y-105653961D01*
X214504583Y-105657842D01*
X214464470Y-105672790D01*
X214423394Y-105684879D01*
X214401967Y-105696081D01*
X214379309Y-105704524D01*
X214342862Y-105726980D01*
X214304919Y-105746816D01*
X214286070Y-105761971D01*
X214265490Y-105774651D01*
X214234102Y-105803755D01*
X214200731Y-105830586D01*
X214185189Y-105849109D01*
X214167458Y-105865549D01*
X214142317Y-105900201D01*
X214114797Y-105932998D01*
X214103147Y-105954189D01*
X214088950Y-105973757D01*
X214071021Y-106012626D01*
X214050392Y-106050150D01*
X214043080Y-106073200D01*
X214032954Y-106095153D01*
X214022915Y-106136770D01*
X214009969Y-106177580D01*
X214007274Y-106201606D01*
X214001603Y-106225115D01*
X213999838Y-106267900D01*
X213995067Y-106310436D01*
X213995000Y-106320000D01*
X213995000Y-108583301D01*
X211517410Y-107152870D01*
X211517380Y-104026636D01*
X211519154Y-103972474D01*
X211512083Y-103929648D01*
X211507829Y-103886457D01*
X211501517Y-103865651D01*
X211497976Y-103844202D01*
X211482687Y-103803579D01*
X211470088Y-103762048D01*
X211459841Y-103742877D01*
X211452181Y-103722525D01*
X211429259Y-103685662D01*
X211408802Y-103647391D01*
X211395012Y-103630588D01*
X211383529Y-103612122D01*
X211353850Y-103580434D01*
X211326324Y-103546894D01*
X211309525Y-103533108D01*
X211294657Y-103517233D01*
X211259363Y-103491941D01*
X211225825Y-103464418D01*
X211178066Y-103438891D01*
X208141275Y-101685579D01*
X208155226Y-101651898D01*
X208195000Y-101451939D01*
X208195000Y-101248061D01*
X208155226Y-101048102D01*
X208077205Y-100859744D01*
X208003877Y-100750000D01*
X208077205Y-100640256D01*
X208155226Y-100451898D01*
X208195000Y-100251939D01*
X208195000Y-100048061D01*
X208155226Y-99848102D01*
X208077205Y-99659744D01*
X208003877Y-99550000D01*
X208077205Y-99440256D01*
X208093204Y-99401631D01*
X210437858Y-100753434D01*
X210476877Y-100771105D01*
X210514552Y-100791476D01*
X210537630Y-100798620D01*
X210559640Y-100808588D01*
X210601348Y-100818344D01*
X210642262Y-100831009D01*
X210666289Y-100833534D01*
X210689814Y-100839037D01*
X210732621Y-100840506D01*
X210775218Y-100844983D01*
X210799278Y-100842793D01*
X210823424Y-100843622D01*
X210865696Y-100836749D01*
X210908356Y-100832867D01*
X210931538Y-100826044D01*
X210955379Y-100822168D01*
X210995510Y-100807216D01*
X211036606Y-100795121D01*
X211058017Y-100783928D01*
X211080656Y-100775493D01*
X211117121Y-100753029D01*
X211155081Y-100733184D01*
X211173913Y-100718043D01*
X211194479Y-100705373D01*
X211225887Y-100676254D01*
X211259269Y-100649414D01*
X211274796Y-100630909D01*
X211292516Y-100614481D01*
X211317675Y-100579808D01*
X211345203Y-100547002D01*
X211356841Y-100525833D01*
X211371031Y-100506277D01*
X211388975Y-100467381D01*
X211409608Y-100429850D01*
X211416912Y-100406824D01*
X211427034Y-100384884D01*
X211437083Y-100343238D01*
X211450031Y-100302420D01*
X211452723Y-100278419D01*
X211458392Y-100254925D01*
X211460161Y-100212111D01*
X211464933Y-100169564D01*
X211465000Y-100160000D01*
X211465000Y-97797157D01*
X214025000Y-99265747D01*
X214025000Y-102170000D01*
X214029310Y-102213953D01*
X214030689Y-102258097D01*
X214035819Y-102280335D01*
X214038046Y-102303051D01*
X214050812Y-102345335D01*
X214060738Y-102388365D01*
X214070089Y-102409182D01*
X214076686Y-102431033D01*
X214097422Y-102470033D01*
X214115517Y-102510315D01*
X214128733Y-102528920D01*
X214139449Y-102549073D01*
X214167361Y-102583296D01*
X214192939Y-102619303D01*
X214209521Y-102634990D01*
X214223944Y-102652674D01*
X214233892Y-102660904D01*
X214237997Y-102686003D01*
X214244623Y-102703735D01*
X214248703Y-102722220D01*
X214267974Y-102766229D01*
X214284791Y-102811235D01*
X214294737Y-102827346D01*
X214302328Y-102844682D01*
X214329774Y-102884103D01*
X214355017Y-102924993D01*
X214367900Y-102938862D01*
X214378716Y-102954397D01*
X214413307Y-102987745D01*
X214446002Y-103022943D01*
X214461332Y-103034045D01*
X214474962Y-103047185D01*
X214515375Y-103073182D01*
X214554280Y-103101356D01*
X214562570Y-103106126D01*
X217742571Y-104906126D01*
X217754751Y-104911526D01*
X217765947Y-104918766D01*
X217815790Y-104938589D01*
X217864786Y-104960313D01*
X217877781Y-104963244D01*
X217890171Y-104968172D01*
X217942906Y-104977935D01*
X217995197Y-104989730D01*
X218008520Y-104990082D01*
X218021627Y-104992508D01*
X218075235Y-104991842D01*
X218128839Y-104993257D01*
X218141980Y-104991013D01*
X218155305Y-104990848D01*
X218207767Y-104979782D01*
X218260620Y-104970758D01*
X218273072Y-104966006D01*
X218286114Y-104963255D01*
X218335420Y-104942212D01*
X218385523Y-104923092D01*
X218396819Y-104916009D01*
X218409074Y-104910779D01*
X218417430Y-104906126D01*
X221597430Y-103106126D01*
X221636737Y-103078489D01*
X221677497Y-103053066D01*
X221691305Y-103040121D01*
X221706792Y-103029232D01*
X221739975Y-102994493D01*
X221775028Y-102961632D01*
X221786063Y-102946246D01*
X221799135Y-102932561D01*
X221824939Y-102892040D01*
X221852942Y-102852994D01*
X221860776Y-102835762D01*
X221870944Y-102819795D01*
X221888385Y-102775033D01*
X221908271Y-102731293D01*
X221912610Y-102712864D01*
X221919481Y-102695229D01*
X221925283Y-102662619D01*
X221929269Y-102659414D01*
X221943938Y-102641932D01*
X221960738Y-102626478D01*
X221986817Y-102590831D01*
X222015203Y-102557002D01*
X222026198Y-102537002D01*
X222039674Y-102518582D01*
X222058332Y-102478551D01*
X222079608Y-102439850D01*
X222086508Y-102418098D01*
X222096151Y-102397409D01*
X222106680Y-102354509D01*
X222120031Y-102312420D01*
X222122574Y-102289744D01*
X222128016Y-102267572D01*
X222130012Y-102223440D01*
X222134933Y-102179564D01*
X222135000Y-102170000D01*
X222135000Y-99271224D01*
X224705000Y-97792261D01*
X224705000Y-100160000D01*
G36*
X206125000Y-99051939D02*
G01*
X206164774Y-99251898D01*
X206242795Y-99440256D01*
X206316123Y-99550000D01*
X206242795Y-99659744D01*
X206164774Y-99848102D01*
X206125000Y-100048061D01*
X206125000Y-100251939D01*
X206164774Y-100451898D01*
X206242795Y-100640256D01*
X206316123Y-100750000D01*
X206242795Y-100859744D01*
X206164774Y-101048102D01*
X206125000Y-101248061D01*
X206125000Y-101295144D01*
X199885000Y-101295144D01*
X199885000Y-101238061D01*
X199845226Y-101038102D01*
X199767205Y-100849744D01*
X199693877Y-100740000D01*
X199767205Y-100630256D01*
X199845226Y-100441898D01*
X199885000Y-100241939D01*
X199885000Y-100038061D01*
X199845226Y-99838102D01*
X199767205Y-99649744D01*
X199693877Y-99540000D01*
X199767205Y-99430256D01*
X199845226Y-99241898D01*
X199885000Y-99041939D01*
X199885000Y-98998730D01*
X206125000Y-98998730D01*
X206125000Y-99051939D01*
G37*
X206125000Y-99051939D02*
X206164774Y-99251898D01*
X206242795Y-99440256D01*
X206316123Y-99550000D01*
X206242795Y-99659744D01*
X206164774Y-99848102D01*
X206125000Y-100048061D01*
X206125000Y-100251939D01*
X206164774Y-100451898D01*
X206242795Y-100640256D01*
X206316123Y-100750000D01*
X206242795Y-100859744D01*
X206164774Y-101048102D01*
X206125000Y-101248061D01*
X206125000Y-101295144D01*
X199885000Y-101295144D01*
X199885000Y-101238061D01*
X199845226Y-101038102D01*
X199767205Y-100849744D01*
X199693877Y-100740000D01*
X199767205Y-100630256D01*
X199845226Y-100441898D01*
X199885000Y-100241939D01*
X199885000Y-100038061D01*
X199845226Y-99838102D01*
X199767205Y-99649744D01*
X199693877Y-99540000D01*
X199767205Y-99430256D01*
X199845226Y-99241898D01*
X199885000Y-99041939D01*
X199885000Y-98998730D01*
X206125000Y-98998730D01*
X206125000Y-99051939D01*
M02*
