G04 #@! TF.GenerationSoftware,KiCad,Pcbnew,(5.1.5)-3*
G04 #@! TF.CreationDate,2020-04-13T20:20:09+08:00*
G04 #@! TF.ProjectId,pcb,7063622e-6b69-4636-9164-5f7063625858,rev?*
G04 #@! TF.SameCoordinates,Original*
G04 #@! TF.FileFunction,Profile,NP*
%FSLAX46Y46*%
G04 Gerber Fmt 4.6, Leading zero omitted, Abs format (unit mm)*
G04 Created by KiCad (PCBNEW (5.1.5)-3) date 2020-04-13 20:20:09*
%MOMM*%
%LPD*%
G04 APERTURE LIST*
%ADD10C,0.150000*%
G04 APERTURE END LIST*
D10*
X147590000Y-104870000D02*
G75*
G02X151490000Y-104870000I1950000J-650000D01*
G01*
X148540000Y-105410000D02*
G75*
G02X150540000Y-105410000I1000000J0D01*
G01*
X149587675Y-105956858D02*
G75*
G02X149539740Y-105969696I-48354J84631D01*
G01*
X149539740Y-105969697D02*
G75*
G02X149492116Y-105957160I-410J95168D01*
G01*
X149492116Y-105957160D02*
X148540000Y-105410000D01*
X145925843Y-100351722D02*
X144150118Y-99327996D01*
X153153304Y-102124462D02*
X153152890Y-103897202D01*
X145926217Y-102124462D02*
X145925843Y-100351722D01*
X156708202Y-98307834D02*
X156187729Y-98604990D01*
X142350275Y-98311223D02*
X142345226Y-98819228D01*
X156708202Y-98307834D02*
G75*
G02X156721634Y-98304270I13433J-23530D01*
G01*
X155610754Y-98935476D02*
X154928856Y-99327996D01*
X154928856Y-99327996D02*
X153153718Y-100351722D01*
X142341433Y-99385110D02*
X142340205Y-100057317D01*
X152690908Y-104181628D02*
X151490000Y-104870000D01*
X144150118Y-99327996D02*
X143468033Y-98935475D01*
X146026956Y-103961668D02*
X145926590Y-103897202D01*
X153152890Y-103897202D02*
X153052525Y-103961767D01*
X143468033Y-98935475D02*
X142890991Y-98604990D01*
X156734094Y-98819228D02*
X156728882Y-98311443D01*
X153052525Y-103961767D02*
X152690908Y-104181628D01*
X142345226Y-98819228D02*
X142341433Y-99385110D01*
X142890991Y-98604990D02*
X142370320Y-98307725D01*
X146395442Y-104185549D02*
X146026956Y-103961668D01*
X156187729Y-98604990D02*
X155610754Y-98935476D01*
X142350274Y-98311224D02*
G75*
G02X142357299Y-98304270I7025J-71D01*
G01*
X147590000Y-104870000D02*
X146395442Y-104185549D01*
X153153718Y-100351722D02*
X153153304Y-102124462D01*
X156721636Y-98304271D02*
G75*
G02X156728882Y-98311443I-1J-7247D01*
G01*
X142357300Y-98304270D02*
G75*
G02X142370320Y-98307725I-1J-26264D01*
G01*
X145926590Y-103897202D02*
X145926217Y-102124462D01*
X150540000Y-105410000D02*
X149587675Y-105956857D01*
X156739276Y-100057317D02*
X156738008Y-99385110D01*
X156740915Y-100753353D02*
X156739276Y-100057317D01*
X156746058Y-101313604D02*
X156740915Y-100753353D01*
X156763210Y-101810364D02*
G75*
G02X156752914Y-101800215I1J10298D01*
G01*
X160352805Y-99751430D02*
X159743733Y-100102691D01*
X157353051Y-105036426D02*
X157928174Y-104703646D01*
X156781217Y-101805625D02*
G75*
G02X156763211Y-101810364I-18006J31842D01*
G01*
X157960903Y-101132158D02*
X157509167Y-101392179D01*
X157124906Y-101611141D02*
X156781217Y-101805625D01*
X160339044Y-103312390D02*
X160345924Y-101531910D01*
X157509167Y-101392179D02*
X157124906Y-101611141D01*
X158454949Y-100846743D02*
X157960903Y-101132158D01*
X159431089Y-100283082D02*
X158968784Y-100549992D01*
X160345924Y-101531910D02*
X160352805Y-99751430D01*
X158599379Y-104316082D02*
X160339044Y-103312390D01*
X156847425Y-105329450D02*
X157353051Y-105036426D01*
X158968784Y-100549992D02*
X158454949Y-100846743D01*
X159743733Y-100102691D02*
X159431089Y-100283082D01*
X156739276Y-105397983D02*
X156799495Y-105358879D01*
X156799495Y-105358879D02*
X156847425Y-105329450D01*
X156738008Y-99385110D02*
X156734094Y-98819228D01*
X156752914Y-101800215D02*
X156746058Y-101313604D01*
X157928174Y-104703646D02*
X158599379Y-104316082D01*
X142333422Y-101313357D02*
X142326567Y-101800227D01*
X142338566Y-100753027D02*
X142333422Y-101313357D01*
X142340205Y-100057317D02*
X142338566Y-100753027D01*
X142326568Y-101800226D02*
G75*
G02X142316282Y-101810364I-10286J149D01*
G01*
X142298284Y-101805628D02*
X141954592Y-101611186D01*
X138726676Y-99751430D02*
X138733556Y-101531910D01*
X140110700Y-100550209D02*
X139648394Y-100283285D01*
X142340237Y-108942989D02*
X144126723Y-109974194D01*
X142232056Y-105329450D02*
X142279985Y-105358879D01*
X145913208Y-111005400D02*
X145920091Y-109242084D01*
X144126723Y-109974194D02*
X145913208Y-111005400D01*
X140624539Y-100846944D02*
X140110700Y-100550209D01*
X141118590Y-101132311D02*
X140624539Y-100846944D01*
X142316282Y-101810363D02*
G75*
G02X142298284Y-101805628I0J36570D01*
G01*
X142340221Y-107170486D02*
X142340237Y-108942989D01*
X138733556Y-101531910D02*
X138740437Y-103312390D01*
X142340205Y-105397983D02*
X142340221Y-107170486D01*
X139335748Y-100102844D02*
X138726676Y-99751430D01*
X142279985Y-105358879D02*
X142340205Y-105397983D01*
X141954592Y-101611186D02*
X141570330Y-101392273D01*
X141570330Y-101392273D02*
X141118590Y-101132311D01*
X139648394Y-100283285D02*
X139335748Y-100102844D01*
X141726429Y-105036426D02*
X142232056Y-105329450D01*
X141151307Y-104703646D02*
X141726429Y-105036426D01*
X140480102Y-104316082D02*
X141151307Y-104703646D01*
X138740437Y-103312390D02*
X140480102Y-104316082D01*
X153135880Y-107515704D02*
X153146695Y-107739017D01*
X156739276Y-108942998D02*
X156739276Y-107170491D01*
X152555994Y-107807256D02*
X153070046Y-107513264D01*
X153166272Y-111004899D02*
X154952774Y-109973948D01*
X153146695Y-107739017D02*
X153154073Y-108143910D01*
X153105861Y-107496390D02*
G75*
G02X153135880Y-107515704I7852J-20782D01*
G01*
X146523485Y-107807386D02*
X147102018Y-108139301D01*
X145943602Y-107515758D02*
G75*
G02X145973620Y-107496482I22140J-1467D01*
G01*
X145973620Y-107496482D02*
G75*
G02X146009445Y-107513398I-90037J-237076D01*
G01*
X149539735Y-109545803D02*
X151299476Y-108529909D01*
X146009445Y-107513398D02*
X146523485Y-107807386D01*
X145925408Y-108143969D02*
X145932785Y-107739051D01*
X147102018Y-108139301D02*
X147780000Y-108530000D01*
X153154073Y-108143910D02*
X153159389Y-109241833D01*
X145920091Y-109242084D02*
X145925408Y-108143969D01*
X154952774Y-109973948D02*
X156739276Y-108942998D01*
X156739276Y-107170491D02*
X156739276Y-105397983D01*
X153159389Y-109241833D02*
X153166272Y-111004899D01*
X153070047Y-107513265D02*
G75*
G02X153105861Y-107496391I124411J-217626D01*
G01*
X151977459Y-108139180D02*
X152555994Y-107807256D01*
X145932785Y-107739051D02*
X145943602Y-107515759D01*
X151299476Y-108529909D02*
X151977459Y-108139180D01*
X147780000Y-108530000D02*
X149539735Y-109545803D01*
M02*
