G04 #@! TF.GenerationSoftware,KiCad,Pcbnew,(5.1.5)-3*
G04 #@! TF.CreationDate,2020-04-13T21:58:25+08:00*
G04 #@! TF.ProjectId,pcb,7063622e-6b69-4636-9164-5f7063625858,rev?*
G04 #@! TF.SameCoordinates,Original*
G04 #@! TF.FileFunction,Legend,Top*
G04 #@! TF.FilePolarity,Positive*
%FSLAX46Y46*%
G04 Gerber Fmt 4.6, Leading zero omitted, Abs format (unit mm)*
G04 Created by KiCad (PCBNEW (5.1.5)-3) date 2020-04-13 21:58:25*
%MOMM*%
%LPD*%
G04 APERTURE LIST*
%ADD10C,0.100000*%
%ADD11C,0.902000*%
G04 APERTURE END LIST*
%LPC*%
D10*
G36*
X217230000Y-107790000D02*
G01*
X214680000Y-109260000D01*
X214680000Y-106320000D01*
X217230000Y-107790000D01*
G37*
X217230000Y-107790000D02*
X214680000Y-109260000D01*
X214680000Y-106320000D01*
X217230000Y-107790000D01*
G36*
X218940000Y-107790000D02*
G01*
X221490000Y-109260000D01*
X221490000Y-106320000D01*
X218940000Y-107790000D01*
G37*
X218940000Y-107790000D02*
X221490000Y-109260000D01*
X221490000Y-106320000D01*
X218940000Y-107790000D01*
G36*
X221260000Y-102510000D02*
G01*
X218080000Y-104310000D01*
X214900000Y-102510000D01*
X218080000Y-100700000D01*
X221260000Y-102510000D01*
G37*
X221260000Y-102510000D02*
X218080000Y-104310000D01*
X214900000Y-102510000D01*
X218080000Y-100700000D01*
X221260000Y-102510000D01*
G36*
X218270000Y-100320000D02*
G01*
X221450000Y-102170000D01*
X221450000Y-99120000D01*
X218270000Y-97270000D01*
X218270000Y-100320000D01*
G37*
X218270000Y-100320000D02*
X221450000Y-102170000D01*
X221450000Y-99120000D01*
X218270000Y-97270000D01*
X218270000Y-100320000D01*
G36*
X217890000Y-100320000D02*
G01*
X214710000Y-102170000D01*
X214710000Y-99120000D01*
X217890000Y-97270000D01*
X217890000Y-100320000D01*
G37*
X217890000Y-100320000D02*
X214710000Y-102170000D01*
X214710000Y-99120000D01*
X217890000Y-97270000D01*
X217890000Y-100320000D01*
G36*
X228460000Y-98390000D02*
G01*
X225390000Y-100160000D01*
X225390000Y-96830000D01*
X225040000Y-96630000D01*
X225230000Y-96530000D01*
X228460000Y-98390000D01*
G37*
X228460000Y-98390000D02*
X225390000Y-100160000D01*
X225390000Y-96830000D01*
X225040000Y-96630000D01*
X225230000Y-96530000D01*
X228460000Y-98390000D01*
G36*
X207710000Y-98390000D02*
G01*
X210780000Y-100160000D01*
X210780000Y-96830000D01*
X211130000Y-96630000D01*
X210940000Y-96530000D01*
X207710000Y-98390000D01*
G37*
X207710000Y-98390000D02*
X210780000Y-100160000D01*
X210780000Y-96830000D01*
X211130000Y-96630000D01*
X210940000Y-96530000D01*
X207710000Y-98390000D01*
G36*
X218080000Y-93040000D02*
G01*
X221650000Y-90970000D01*
X224830000Y-92810000D01*
X221250000Y-94870000D01*
X224830000Y-96930000D01*
X221650000Y-98760000D01*
X218080000Y-96690000D01*
X214520000Y-98760000D01*
X211330000Y-96930000D01*
X214890000Y-94870000D01*
X211320000Y-92810000D01*
X214510000Y-90970000D01*
X218080000Y-93040000D01*
G37*
X218080000Y-93040000D02*
X221650000Y-90970000D01*
X224830000Y-92810000D01*
X221250000Y-94870000D01*
X224830000Y-96930000D01*
X221650000Y-98760000D01*
X218080000Y-96690000D01*
X214520000Y-98760000D01*
X211330000Y-96930000D01*
X214890000Y-94870000D01*
X211320000Y-92810000D01*
X214510000Y-90970000D01*
X218080000Y-93040000D01*
G36*
X222020000Y-94870000D02*
G01*
X224680000Y-96400000D01*
X225030000Y-96220000D01*
X225030000Y-93140000D01*
X222020000Y-94870000D01*
G37*
X222020000Y-94870000D02*
X224680000Y-96400000D01*
X225030000Y-96220000D01*
X225030000Y-93140000D01*
X222020000Y-94870000D01*
G36*
X214140000Y-94870000D02*
G01*
X211480000Y-96400000D01*
X211130000Y-96220000D01*
X211130000Y-93140000D01*
X214140000Y-94870000D01*
G37*
X214140000Y-94870000D02*
X211480000Y-96400000D01*
X211130000Y-96220000D01*
X211130000Y-93140000D01*
X214140000Y-94870000D01*
G36*
X183980000Y-94870000D02*
G01*
X181320000Y-96400000D01*
X180970000Y-96220000D01*
X180970000Y-93140000D01*
X183980000Y-94870000D01*
G37*
X183980000Y-94870000D02*
X181320000Y-96400000D01*
X180970000Y-96220000D01*
X180970000Y-93140000D01*
X183980000Y-94870000D01*
G36*
X191860000Y-94870000D02*
G01*
X194520000Y-96400000D01*
X194870000Y-96220000D01*
X194870000Y-93140000D01*
X191860000Y-94870000D01*
G37*
X191860000Y-94870000D02*
X194520000Y-96400000D01*
X194870000Y-96220000D01*
X194870000Y-93140000D01*
X191860000Y-94870000D01*
G36*
X187920000Y-93040000D02*
G01*
X191490000Y-90970000D01*
X194670000Y-92810000D01*
X191090000Y-94870000D01*
X194670000Y-96930000D01*
X191490000Y-98760000D01*
X187920000Y-96690000D01*
X184360000Y-98760000D01*
X181170000Y-96930000D01*
X184730000Y-94870000D01*
X181160000Y-92810000D01*
X184350000Y-90970000D01*
X187920000Y-93040000D01*
G37*
X187920000Y-93040000D02*
X191490000Y-90970000D01*
X194670000Y-92810000D01*
X191090000Y-94870000D01*
X194670000Y-96930000D01*
X191490000Y-98760000D01*
X187920000Y-96690000D01*
X184360000Y-98760000D01*
X181170000Y-96930000D01*
X184730000Y-94870000D01*
X181160000Y-92810000D01*
X184350000Y-90970000D01*
X187920000Y-93040000D01*
G36*
X177550000Y-98390000D02*
G01*
X180620000Y-100160000D01*
X180620000Y-96830000D01*
X180970000Y-96630000D01*
X180780000Y-96530000D01*
X177550000Y-98390000D01*
G37*
X177550000Y-98390000D02*
X180620000Y-100160000D01*
X180620000Y-96830000D01*
X180970000Y-96630000D01*
X180780000Y-96530000D01*
X177550000Y-98390000D01*
G36*
X198300000Y-98390000D02*
G01*
X195230000Y-100160000D01*
X195230000Y-96830000D01*
X194880000Y-96630000D01*
X195070000Y-96530000D01*
X198300000Y-98390000D01*
G37*
X198300000Y-98390000D02*
X195230000Y-100160000D01*
X195230000Y-96830000D01*
X194880000Y-96630000D01*
X195070000Y-96530000D01*
X198300000Y-98390000D01*
G36*
X187730000Y-100320000D02*
G01*
X184550000Y-102170000D01*
X184550000Y-99120000D01*
X187730000Y-97270000D01*
X187730000Y-100320000D01*
G37*
X187730000Y-100320000D02*
X184550000Y-102170000D01*
X184550000Y-99120000D01*
X187730000Y-97270000D01*
X187730000Y-100320000D01*
G36*
X188110000Y-100320000D02*
G01*
X191290000Y-102170000D01*
X191290000Y-99120000D01*
X188110000Y-97270000D01*
X188110000Y-100320000D01*
G37*
X188110000Y-100320000D02*
X191290000Y-102170000D01*
X191290000Y-99120000D01*
X188110000Y-97270000D01*
X188110000Y-100320000D01*
G36*
X191100000Y-102510000D02*
G01*
X187920000Y-104310000D01*
X184740000Y-102510000D01*
X187920000Y-100700000D01*
X191100000Y-102510000D01*
G37*
X191100000Y-102510000D02*
X187920000Y-104310000D01*
X184740000Y-102510000D01*
X187920000Y-100700000D01*
X191100000Y-102510000D01*
G36*
X188780000Y-107790000D02*
G01*
X191330000Y-109260000D01*
X191330000Y-106320000D01*
X188780000Y-107790000D01*
G37*
X188780000Y-107790000D02*
X191330000Y-109260000D01*
X191330000Y-106320000D01*
X188780000Y-107790000D01*
G36*
X187070000Y-107790000D02*
G01*
X184520000Y-109260000D01*
X184520000Y-106320000D01*
X187070000Y-107790000D01*
G37*
X187070000Y-107790000D02*
X184520000Y-109260000D01*
X184520000Y-106320000D01*
X187070000Y-107790000D01*
D11*
X207160000Y-101350000D03*
X207160000Y-98950000D03*
X207160000Y-100150000D03*
X198850000Y-101340000D03*
X198850000Y-100140000D03*
X198850000Y-98940000D03*
M02*
