G04 #@! TF.GenerationSoftware,KiCad,Pcbnew,(5.1.5)-3*
G04 #@! TF.CreationDate,2020-04-13T21:58:25+08:00*
G04 #@! TF.ProjectId,pcb,7063622e-6b69-4636-9164-5f7063625858,rev?*
G04 #@! TF.SameCoordinates,Original*
G04 #@! TF.FileFunction,Soldermask,Top*
G04 #@! TF.FilePolarity,Negative*
%FSLAX46Y46*%
G04 Gerber Fmt 4.6, Leading zero omitted, Abs format (unit mm)*
G04 Created by KiCad (PCBNEW (5.1.5)-3) date 2020-04-13 21:58:25*
%MOMM*%
%LPD*%
G04 APERTURE LIST*
%ADD10C,0.100000*%
G04 APERTURE END LIST*
D10*
G36*
X217230000Y-107790000D02*
G01*
X214680000Y-109260000D01*
X214680000Y-106320000D01*
X217230000Y-107790000D01*
G37*
X217230000Y-107790000D02*
X214680000Y-109260000D01*
X214680000Y-106320000D01*
X217230000Y-107790000D01*
G36*
X218940000Y-107790000D02*
G01*
X221490000Y-109260000D01*
X221490000Y-106320000D01*
X218940000Y-107790000D01*
G37*
X218940000Y-107790000D02*
X221490000Y-109260000D01*
X221490000Y-106320000D01*
X218940000Y-107790000D01*
G36*
X221260000Y-102510000D02*
G01*
X218080000Y-104310000D01*
X214900000Y-102510000D01*
X218080000Y-100700000D01*
X221260000Y-102510000D01*
G37*
X221260000Y-102510000D02*
X218080000Y-104310000D01*
X214900000Y-102510000D01*
X218080000Y-100700000D01*
X221260000Y-102510000D01*
G36*
X218270000Y-100320000D02*
G01*
X221450000Y-102170000D01*
X221450000Y-99120000D01*
X218270000Y-97270000D01*
X218270000Y-100320000D01*
G37*
X218270000Y-100320000D02*
X221450000Y-102170000D01*
X221450000Y-99120000D01*
X218270000Y-97270000D01*
X218270000Y-100320000D01*
G36*
X217890000Y-100320000D02*
G01*
X214710000Y-102170000D01*
X214710000Y-99120000D01*
X217890000Y-97270000D01*
X217890000Y-100320000D01*
G37*
X217890000Y-100320000D02*
X214710000Y-102170000D01*
X214710000Y-99120000D01*
X217890000Y-97270000D01*
X217890000Y-100320000D01*
G36*
X228460000Y-98390000D02*
G01*
X225390000Y-100160000D01*
X225390000Y-96830000D01*
X225040000Y-96630000D01*
X225230000Y-96530000D01*
X228460000Y-98390000D01*
G37*
X228460000Y-98390000D02*
X225390000Y-100160000D01*
X225390000Y-96830000D01*
X225040000Y-96630000D01*
X225230000Y-96530000D01*
X228460000Y-98390000D01*
G36*
X207710000Y-98390000D02*
G01*
X210780000Y-100160000D01*
X210780000Y-96830000D01*
X211130000Y-96630000D01*
X210940000Y-96530000D01*
X207710000Y-98390000D01*
G37*
X207710000Y-98390000D02*
X210780000Y-100160000D01*
X210780000Y-96830000D01*
X211130000Y-96630000D01*
X210940000Y-96530000D01*
X207710000Y-98390000D01*
G36*
X218080000Y-93040000D02*
G01*
X221650000Y-90970000D01*
X224830000Y-92810000D01*
X221250000Y-94870000D01*
X224830000Y-96930000D01*
X221650000Y-98760000D01*
X218080000Y-96690000D01*
X214520000Y-98760000D01*
X211330000Y-96930000D01*
X214890000Y-94870000D01*
X211320000Y-92810000D01*
X214510000Y-90970000D01*
X218080000Y-93040000D01*
G37*
X218080000Y-93040000D02*
X221650000Y-90970000D01*
X224830000Y-92810000D01*
X221250000Y-94870000D01*
X224830000Y-96930000D01*
X221650000Y-98760000D01*
X218080000Y-96690000D01*
X214520000Y-98760000D01*
X211330000Y-96930000D01*
X214890000Y-94870000D01*
X211320000Y-92810000D01*
X214510000Y-90970000D01*
X218080000Y-93040000D01*
G36*
X222020000Y-94870000D02*
G01*
X224680000Y-96400000D01*
X225030000Y-96220000D01*
X225030000Y-93140000D01*
X222020000Y-94870000D01*
G37*
X222020000Y-94870000D02*
X224680000Y-96400000D01*
X225030000Y-96220000D01*
X225030000Y-93140000D01*
X222020000Y-94870000D01*
G36*
X214140000Y-94870000D02*
G01*
X211480000Y-96400000D01*
X211130000Y-96220000D01*
X211130000Y-93140000D01*
X214140000Y-94870000D01*
G37*
X214140000Y-94870000D02*
X211480000Y-96400000D01*
X211130000Y-96220000D01*
X211130000Y-93140000D01*
X214140000Y-94870000D01*
G36*
X183980000Y-94870000D02*
G01*
X181320000Y-96400000D01*
X180970000Y-96220000D01*
X180970000Y-93140000D01*
X183980000Y-94870000D01*
G37*
X183980000Y-94870000D02*
X181320000Y-96400000D01*
X180970000Y-96220000D01*
X180970000Y-93140000D01*
X183980000Y-94870000D01*
G36*
X191860000Y-94870000D02*
G01*
X194520000Y-96400000D01*
X194870000Y-96220000D01*
X194870000Y-93140000D01*
X191860000Y-94870000D01*
G37*
X191860000Y-94870000D02*
X194520000Y-96400000D01*
X194870000Y-96220000D01*
X194870000Y-93140000D01*
X191860000Y-94870000D01*
G36*
X187920000Y-93040000D02*
G01*
X191490000Y-90970000D01*
X194670000Y-92810000D01*
X191090000Y-94870000D01*
X194670000Y-96930000D01*
X191490000Y-98760000D01*
X187920000Y-96690000D01*
X184360000Y-98760000D01*
X181170000Y-96930000D01*
X184730000Y-94870000D01*
X181160000Y-92810000D01*
X184350000Y-90970000D01*
X187920000Y-93040000D01*
G37*
X187920000Y-93040000D02*
X191490000Y-90970000D01*
X194670000Y-92810000D01*
X191090000Y-94870000D01*
X194670000Y-96930000D01*
X191490000Y-98760000D01*
X187920000Y-96690000D01*
X184360000Y-98760000D01*
X181170000Y-96930000D01*
X184730000Y-94870000D01*
X181160000Y-92810000D01*
X184350000Y-90970000D01*
X187920000Y-93040000D01*
G36*
X177550000Y-98390000D02*
G01*
X180620000Y-100160000D01*
X180620000Y-96830000D01*
X180970000Y-96630000D01*
X180780000Y-96530000D01*
X177550000Y-98390000D01*
G37*
X177550000Y-98390000D02*
X180620000Y-100160000D01*
X180620000Y-96830000D01*
X180970000Y-96630000D01*
X180780000Y-96530000D01*
X177550000Y-98390000D01*
G36*
X198300000Y-98390000D02*
G01*
X195230000Y-100160000D01*
X195230000Y-96830000D01*
X194880000Y-96630000D01*
X195070000Y-96530000D01*
X198300000Y-98390000D01*
G37*
X198300000Y-98390000D02*
X195230000Y-100160000D01*
X195230000Y-96830000D01*
X194880000Y-96630000D01*
X195070000Y-96530000D01*
X198300000Y-98390000D01*
G36*
X187730000Y-100320000D02*
G01*
X184550000Y-102170000D01*
X184550000Y-99120000D01*
X187730000Y-97270000D01*
X187730000Y-100320000D01*
G37*
X187730000Y-100320000D02*
X184550000Y-102170000D01*
X184550000Y-99120000D01*
X187730000Y-97270000D01*
X187730000Y-100320000D01*
G36*
X188110000Y-100320000D02*
G01*
X191290000Y-102170000D01*
X191290000Y-99120000D01*
X188110000Y-97270000D01*
X188110000Y-100320000D01*
G37*
X188110000Y-100320000D02*
X191290000Y-102170000D01*
X191290000Y-99120000D01*
X188110000Y-97270000D01*
X188110000Y-100320000D01*
G36*
X191100000Y-102510000D02*
G01*
X187920000Y-104310000D01*
X184740000Y-102510000D01*
X187920000Y-100700000D01*
X191100000Y-102510000D01*
G37*
X191100000Y-102510000D02*
X187920000Y-104310000D01*
X184740000Y-102510000D01*
X187920000Y-100700000D01*
X191100000Y-102510000D01*
G36*
X188780000Y-107790000D02*
G01*
X191330000Y-109260000D01*
X191330000Y-106320000D01*
X188780000Y-107790000D01*
G37*
X188780000Y-107790000D02*
X191330000Y-109260000D01*
X191330000Y-106320000D01*
X188780000Y-107790000D01*
G36*
X187070000Y-107790000D02*
G01*
X184520000Y-109260000D01*
X184520000Y-106320000D01*
X187070000Y-107790000D01*
G37*
X187070000Y-107790000D02*
X184520000Y-109260000D01*
X184520000Y-106320000D01*
X187070000Y-107790000D01*
G36*
X207291552Y-100916331D02*
G01*
X207373627Y-100950328D01*
X207373629Y-100950329D01*
X207410813Y-100975175D01*
X207447495Y-100999685D01*
X207510315Y-101062505D01*
X207559672Y-101136373D01*
X207593669Y-101218448D01*
X207611000Y-101305579D01*
X207611000Y-101394421D01*
X207593669Y-101481552D01*
X207563814Y-101553627D01*
X207559671Y-101563629D01*
X207510314Y-101637496D01*
X207447496Y-101700314D01*
X207373629Y-101749671D01*
X207373628Y-101749672D01*
X207373627Y-101749672D01*
X207291552Y-101783669D01*
X207204421Y-101801000D01*
X207115579Y-101801000D01*
X207028448Y-101783669D01*
X206946373Y-101749672D01*
X206946372Y-101749672D01*
X206946371Y-101749671D01*
X206872504Y-101700314D01*
X206809686Y-101637496D01*
X206760329Y-101563629D01*
X206756186Y-101553627D01*
X206726331Y-101481552D01*
X206709000Y-101394421D01*
X206709000Y-101305579D01*
X206726331Y-101218448D01*
X206760328Y-101136373D01*
X206809685Y-101062505D01*
X206872505Y-100999685D01*
X206909187Y-100975175D01*
X206946371Y-100950329D01*
X206946373Y-100950328D01*
X207028448Y-100916331D01*
X207115579Y-100899000D01*
X207204421Y-100899000D01*
X207291552Y-100916331D01*
G37*
G36*
X198981552Y-100906331D02*
G01*
X199063627Y-100940328D01*
X199063629Y-100940329D01*
X199078593Y-100950328D01*
X199137495Y-100989685D01*
X199200315Y-101052505D01*
X199249672Y-101126373D01*
X199283669Y-101208448D01*
X199301000Y-101295579D01*
X199301000Y-101384421D01*
X199283669Y-101471552D01*
X199249672Y-101553627D01*
X199249671Y-101553629D01*
X199200314Y-101627496D01*
X199137496Y-101690314D01*
X199063629Y-101739671D01*
X199063628Y-101739672D01*
X199063627Y-101739672D01*
X198981552Y-101773669D01*
X198894421Y-101791000D01*
X198805579Y-101791000D01*
X198718448Y-101773669D01*
X198636373Y-101739672D01*
X198636372Y-101739672D01*
X198636371Y-101739671D01*
X198562504Y-101690314D01*
X198499686Y-101627496D01*
X198450329Y-101553629D01*
X198450328Y-101553627D01*
X198416331Y-101471552D01*
X198399000Y-101384421D01*
X198399000Y-101295579D01*
X198416331Y-101208448D01*
X198450328Y-101126373D01*
X198499685Y-101052505D01*
X198562505Y-100989685D01*
X198621407Y-100950328D01*
X198636371Y-100940329D01*
X198636373Y-100940328D01*
X198718448Y-100906331D01*
X198805579Y-100889000D01*
X198894421Y-100889000D01*
X198981552Y-100906331D01*
G37*
G36*
X207291552Y-99716331D02*
G01*
X207373627Y-99750328D01*
X207373629Y-99750329D01*
X207410813Y-99775175D01*
X207447495Y-99799685D01*
X207510315Y-99862505D01*
X207559672Y-99936373D01*
X207593669Y-100018448D01*
X207611000Y-100105579D01*
X207611000Y-100194421D01*
X207593669Y-100281552D01*
X207563814Y-100353627D01*
X207559671Y-100363629D01*
X207510314Y-100437496D01*
X207447496Y-100500314D01*
X207373629Y-100549671D01*
X207373628Y-100549672D01*
X207373627Y-100549672D01*
X207291552Y-100583669D01*
X207204421Y-100601000D01*
X207115579Y-100601000D01*
X207028448Y-100583669D01*
X206946373Y-100549672D01*
X206946372Y-100549672D01*
X206946371Y-100549671D01*
X206872504Y-100500314D01*
X206809686Y-100437496D01*
X206760329Y-100363629D01*
X206756186Y-100353627D01*
X206726331Y-100281552D01*
X206709000Y-100194421D01*
X206709000Y-100105579D01*
X206726331Y-100018448D01*
X206760328Y-99936373D01*
X206809685Y-99862505D01*
X206872505Y-99799685D01*
X206909187Y-99775175D01*
X206946371Y-99750329D01*
X206946373Y-99750328D01*
X207028448Y-99716331D01*
X207115579Y-99699000D01*
X207204421Y-99699000D01*
X207291552Y-99716331D01*
G37*
G36*
X198981552Y-99706331D02*
G01*
X199063627Y-99740328D01*
X199063629Y-99740329D01*
X199078593Y-99750328D01*
X199137495Y-99789685D01*
X199200315Y-99852505D01*
X199249672Y-99926373D01*
X199283669Y-100008448D01*
X199301000Y-100095579D01*
X199301000Y-100184421D01*
X199283669Y-100271552D01*
X199249672Y-100353627D01*
X199249671Y-100353629D01*
X199200314Y-100427496D01*
X199137496Y-100490314D01*
X199063629Y-100539671D01*
X199063628Y-100539672D01*
X199063627Y-100539672D01*
X198981552Y-100573669D01*
X198894421Y-100591000D01*
X198805579Y-100591000D01*
X198718448Y-100573669D01*
X198636373Y-100539672D01*
X198636372Y-100539672D01*
X198636371Y-100539671D01*
X198562504Y-100490314D01*
X198499686Y-100427496D01*
X198450329Y-100353629D01*
X198450328Y-100353627D01*
X198416331Y-100271552D01*
X198399000Y-100184421D01*
X198399000Y-100095579D01*
X198416331Y-100008448D01*
X198450328Y-99926373D01*
X198499685Y-99852505D01*
X198562505Y-99789685D01*
X198621407Y-99750328D01*
X198636371Y-99740329D01*
X198636373Y-99740328D01*
X198718448Y-99706331D01*
X198805579Y-99689000D01*
X198894421Y-99689000D01*
X198981552Y-99706331D01*
G37*
G36*
X207291552Y-98516331D02*
G01*
X207373627Y-98550328D01*
X207373629Y-98550329D01*
X207410813Y-98575175D01*
X207447495Y-98599685D01*
X207510315Y-98662505D01*
X207559672Y-98736373D01*
X207593669Y-98818448D01*
X207611000Y-98905579D01*
X207611000Y-98994421D01*
X207593669Y-99081552D01*
X207563814Y-99153627D01*
X207559671Y-99163629D01*
X207510314Y-99237496D01*
X207447496Y-99300314D01*
X207373629Y-99349671D01*
X207373628Y-99349672D01*
X207373627Y-99349672D01*
X207291552Y-99383669D01*
X207204421Y-99401000D01*
X207115579Y-99401000D01*
X207028448Y-99383669D01*
X206946373Y-99349672D01*
X206946372Y-99349672D01*
X206946371Y-99349671D01*
X206872504Y-99300314D01*
X206809686Y-99237496D01*
X206760329Y-99163629D01*
X206756186Y-99153627D01*
X206726331Y-99081552D01*
X206709000Y-98994421D01*
X206709000Y-98905579D01*
X206726331Y-98818448D01*
X206760328Y-98736373D01*
X206809685Y-98662505D01*
X206872505Y-98599685D01*
X206909187Y-98575175D01*
X206946371Y-98550329D01*
X206946373Y-98550328D01*
X207028448Y-98516331D01*
X207115579Y-98499000D01*
X207204421Y-98499000D01*
X207291552Y-98516331D01*
G37*
G36*
X198981552Y-98506331D02*
G01*
X199063627Y-98540328D01*
X199063629Y-98540329D01*
X199078593Y-98550328D01*
X199137495Y-98589685D01*
X199200315Y-98652505D01*
X199249672Y-98726373D01*
X199283669Y-98808448D01*
X199301000Y-98895579D01*
X199301000Y-98984421D01*
X199283669Y-99071552D01*
X199249672Y-99153627D01*
X199249671Y-99153629D01*
X199200314Y-99227496D01*
X199137496Y-99290314D01*
X199063629Y-99339671D01*
X199063628Y-99339672D01*
X199063627Y-99339672D01*
X198981552Y-99373669D01*
X198894421Y-99391000D01*
X198805579Y-99391000D01*
X198718448Y-99373669D01*
X198636373Y-99339672D01*
X198636372Y-99339672D01*
X198636371Y-99339671D01*
X198562504Y-99290314D01*
X198499686Y-99227496D01*
X198450329Y-99153629D01*
X198450328Y-99153627D01*
X198416331Y-99071552D01*
X198399000Y-98984421D01*
X198399000Y-98895579D01*
X198416331Y-98808448D01*
X198450328Y-98726373D01*
X198499685Y-98652505D01*
X198562505Y-98589685D01*
X198621407Y-98550328D01*
X198636371Y-98540329D01*
X198636373Y-98540328D01*
X198718448Y-98506331D01*
X198805579Y-98489000D01*
X198894421Y-98489000D01*
X198981552Y-98506331D01*
G37*
M02*
